<?xml version="1.0" encoding="utf-8"?>
<!-- Generator: Adobe Illustrator 26.0.1, SVG Export Plug-In . SVG Version: 6.00 Build 0)  -->
<svg version="1.1" id="레이어_1" xmlns="http://www.w3.org/2000/svg" xmlns:xlink="http://www.w3.org/1999/xlink" x="0px"
	 y="0px" viewBox="0 0 512 512" style="enable-background:new 0 0 512 512;" xml:space="preserve">
<style type="text/css">
	.st0{fill:#D392FF;}
	.st1{fill:#19003E;}
</style>
<path id="패스_364" class="st0" d="M508.5,99.2v313.6c0.1,49.3-39.7,89.3-89,89.4H92.9c-49.3,0.1-89.3-39.7-89.4-89v-314
	C3.4,50,43.2,9.9,92.5,9.8c0,0,0,0,0,0h326.6c49.3-0.1,89.3,39.7,89.4,89V99.2z M487.2,404.6V107.1c0-42.2-34.1-76.3-76.3-76.4h0
	H100.9c-42.2,0.1-76.4,34.4-76.4,76.6v297.2c0,42.2,34.1,76.5,76.4,76.6h310.3c20.1,0.4,39.5-7.6,53.5-22
	C479.3,444.8,487.4,425.1,487.2,404.6L487.2,404.6z"/>
<path id="패스_365" class="st1" d="M487.2,107.1v297.5c0.2,20.5-8,40.2-22.5,54.6c-14.1,14.4-33.4,22.4-53.5,22H100.9
	c-42.2-0.1-76.4-34.4-76.4-76.6V107.4c0-42.2,34.1-76.5,76.4-76.6h310C453,30.8,487.2,64.9,487.2,107.1L487.2,107.1L487.2,107.1
	L487.2,107.1z M412.2,282.9c1.4-7.3,2-14.7,1.8-22.1c-0.1-10.7-2.1-21.4-5.9-31.4c-3.9-10.6-10.5-19.9-19.4-26.9
	c-10.3-7.7-22.9-11.5-35.7-10.9c-20.7-0.9-40.3,9.1-51.9,26.2c-12.5,18.6-18.9,40.7-18.3,63.1c-0.1,14.4,2.4,28.7,7.4,42.2
	c4.7,12.7,13,23.7,23.9,31.6c13,8.6,28.4,12.8,44,12c14.3,0.5,28.6-2.2,41.8-8c1.6-0.7,2.5-2.4,2.3-4.1v-26.1
	c0.1-0.7-0.2-1.3-0.8-1.7c-0.6-0.2-1.2-0.2-1.8,0.1c-10.7,4.5-22.2,6.8-33.9,6.7c-12.9,1.2-25.6-3.5-34.5-12.9
	c-7.5-9.7-11.3-21.7-10.9-33.9l54.3,0.2c11.6,0.4,23.1-0.1,34.6-1.5C410.8,285.5,412,284.3,412.2,282.9L412.2,282.9z M271.8,363.6
	c1.5,0,2-0.8,1.5-2.5l-66.2-223.7c-0.1-0.6-0.3-1.2-0.6-1.7c-0.5-0.3-1.1-0.4-1.7-0.4H161c-1,0-1.5,0.7-1.5,2.1
	c-0.4,5-0.6,8.6-0.9,10.9c-0.2,2.1-0.7,4.1-1.4,6L98.6,360.5c-0.3,1.2-0.3,2,0,2.5c0.5,0.5,1.3,0.7,2,0.6H131
	c0.8,0.1,1.5-0.1,2.2-0.5c0.5-0.5,0.8-1.1,0.9-1.8l16.4-62h66.6l17.2,62.3c0.5,1.4,1.9,2.2,3.4,2L271.8,363.6z"/>
<path id="패스_366" class="st0" d="M402.2,328.7v26.1c0.2,1.7-0.7,3.4-2.3,4.1c-13.1,5.8-27.4,8.5-41.8,7.9
	c-15.6,0.8-31-3.4-44-12c-10.9-7.9-19.3-19-24-31.6c-5-13.5-7.5-27.8-7.4-42.2c-0.6-22.4,5.8-44.5,18.3-63.1
	c11.6-17.2,31.2-27.1,51.9-26.2c12.8-0.6,25.4,3.2,35.7,10.9c8.8,7,15.5,16.3,19.4,26.9c3.8,10,5.8,20.7,5.9,31.4
	c0.2,7.4-0.4,14.8-1.8,22.1c-0.1,1.5-1.3,2.7-2.8,2.8c-11.5,1.4-23,1.9-34.6,1.5l-54.3-0.2c-0.4,12.2,3.5,24.2,10.9,33.9
	c8.9,9.4,21.6,14.2,34.4,13c11.6,0.1,23.1-2.2,33.8-6.7c0.5-0.3,1.2-0.4,1.8-0.1C401.9,327.5,402.2,328.1,402.2,328.7z M378.1,255.7
	c0.1-0.4,0.2-0.9,0.2-1.3c-0.1-4.5-0.9-9-2.3-13.3c-1.6-5-4.3-9.5-8.1-13.1c-4.5-4-10.5-6-16.5-5.6c-8.8-0.6-17.2,3.4-22.2,10.7
	c-4.8,7.5-7.7,16.1-8.3,25h53c1.3,0.1,2.6,0,3.9-0.3C377.8,257.1,377.9,256.5,378.1,255.7L378.1,255.7z"/>
<path id="패스_367" class="st1" d="M378.3,254.4c0,0.4-0.1,0.9-0.2,1.3c-0.2,0.7-0.3,1.3-0.3,2c-1.3,0.3-2.6,0.4-3.9,0.3h-53
	c0.6-8.9,3.5-17.5,8.3-25c5-7.2,13.4-11.3,22.2-10.7c6-0.4,12,1.6,16.5,5.6c3.7,3.6,6.5,8.1,8.1,13.1
	C377.5,245.4,378.3,249.9,378.3,254.4z"/>
<path id="패스_368" class="st0" d="M273.3,361c0.5,1.7,0,2.5-1.5,2.5h-34.1c-1.5,0.2-2.8-0.7-3.4-2l-17.2-62.3h-66.6l-16.4,62
	c-0.1,0.7-0.4,1.3-0.9,1.8c-0.6,0.4-1.4,0.6-2.2,0.5h-30.5c-0.7,0.1-1.5-0.1-2-0.6c-0.3-0.4-0.3-1.2,0-2.5l58.7-206.2
	c0.8-1.9,1.2-3.9,1.4-6c0.3-2.3,0.5-5.9,0.9-10.9c0-1.4,0.5-2,1.5-2h43.8c0.6-0.1,1.2,0.1,1.7,0.4c0.3,0.5,0.6,1.1,0.6,1.7
	L273.3,361z M184.4,265.7H209c-2-8.2-4.8-18.5-8.2-31c-3.2-12-6.4-24-9.5-36.1c-3.1-12.1-5.6-22.3-7.4-30.5h-0.5
	c-4.6,22.7-11.2,49.6-19.7,80.7c-1.5,5.8-3.1,11.4-4.6,16.9L184.4,265.7L184.4,265.7z"/>
<path id="패스_369" class="st1" d="M209,265.7h-50c1.5-5.5,3.1-11.1,4.6-16.9c8.5-31.1,15.1-58,19.7-80.7h0.5
	c1.9,8.2,4.4,18.4,7.4,30.5s6.2,24.2,9.5,36.1C204.2,247.2,206.9,257.5,209,265.7z"/>
</svg>
