<svg id="레이어_1" data-name="레이어 1" xmlns="http://www.w3.org/2000/svg" viewBox="0 0 505 492.47"><path id="패스_364" data-name="패스 364" d="M509.17,99.53V413.14a89.23,89.23,0,0,1-89,89.43H93.59a89.22,89.22,0,0,1-89.42-89v-314a89.21,89.21,0,0,1,89-89.43h326.6a89.22,89.22,0,0,1,89.4,89ZM487.92,404.94V107.47a76.33,76.33,0,0,0-76.3-76.36H101.54a76.5,76.5,0,0,0-76.36,76.6V404.92a76.55,76.55,0,0,0,76.36,76.59H411.82a73,73,0,0,0,53.54-22,75.92,75.92,0,0,0,22.56-54.55Z" transform="translate(-4.17 -10.1)" style="fill:#d392ff"/><path id="패스_365" data-name="패스 365" d="M487.92,107.45V404.92a75.94,75.94,0,0,1-22.55,54.58,73,73,0,0,1-53.54,22H101.54a76.55,76.55,0,0,1-76.36-76.59V107.72a76.5,76.5,0,0,1,76.36-76.59h310a76.33,76.33,0,0,1,76.35,76.31v0ZM412.83,283.23a98.94,98.94,0,0,0,1.83-22.06,90.54,90.54,0,0,0-5.9-31.39,61.32,61.32,0,0,0-19.35-26.93A55,55,0,0,0,353.68,192a59.52,59.52,0,0,0-51.88,26.24,107.67,107.67,0,0,0-18.32,63.12,117.8,117.8,0,0,0,7.42,42.17,68.42,68.42,0,0,0,23.94,31.64,73.18,73.18,0,0,0,44,12,94.7,94.7,0,0,0,41.76-7.95,4.05,4.05,0,0,0,2.3-4.08V329a1.71,1.71,0,0,0-.76-1.69,2,2,0,0,0-1.79.13,85.31,85.31,0,0,1-33.85,6.66A42,42,0,0,1,332,321.16a52.8,52.8,0,0,1-10.94-33.93l54.33.25A224.61,224.61,0,0,0,410,285.94a3.05,3.05,0,0,0,2.8-2.8ZM272.44,363.92c1.54,0,2.05-.84,1.54-2.53L207.82,137.7a3.66,3.66,0,0,0-.63-1.69,2.61,2.61,0,0,0-1.68-.38H161.68c-1,0-1.54.66-1.54,2.05-.35,5-.64,8.58-.85,10.87a22.41,22.41,0,0,1-1.41,6L99.22,360.8c-.35,1.19-.35,2,0,2.45a2.53,2.53,0,0,0,2,.63h30.48a3.46,3.46,0,0,0,2.17-.51,2.87,2.87,0,0,0,.91-1.79l16.4-62h66.61L235,361.84a3.19,3.19,0,0,0,3.36,2Z" transform="translate(-4.17 -10.1)" style="fill:#19003e"/><path id="패스_366" data-name="패스 366" d="M402.83,329.08v26.14a4,4,0,0,1-2.3,4.09,94.48,94.48,0,0,1-41.75,7.94,73.17,73.17,0,0,1-44-12,68.37,68.37,0,0,1-23.95-31.64,117.65,117.65,0,0,1-7.41-42.17,107.55,107.55,0,0,1,18.31-63.12,59.5,59.5,0,0,1,51.88-26.24,55.09,55.09,0,0,1,35.73,10.87,61.23,61.23,0,0,1,19.36,26.94,90.75,90.75,0,0,1,5.89,31.38,98.36,98.36,0,0,1-1.83,22.06,3,3,0,0,1-2.79,2.8,224.61,224.61,0,0,1-34.59,1.54l-54.33-.25A52.8,52.8,0,0,0,332,321.32a42,42,0,0,0,34.44,12.95,85.23,85.23,0,0,0,33.84-6.66,1.94,1.94,0,0,1,1.8-.13A1.69,1.69,0,0,1,402.83,329.08Zm-24.07-73a4.76,4.76,0,0,0,.25-1.29,45.38,45.38,0,0,0-2.3-13.32,31.15,31.15,0,0,0-8.07-13.07,22.78,22.78,0,0,0-16.53-5.63,24.73,24.73,0,0,0-22.18,10.66,53.18,53.18,0,0,0-8.33,25h53a13.2,13.2,0,0,0,3.86-.29,7.44,7.44,0,0,1,.28-2Z" transform="translate(-4.17 -10.1)" style="fill:#d392ff"/><path id="패스_367" data-name="패스 367" d="M379,254.77a4.76,4.76,0,0,1-.25,1.29,7.82,7.82,0,0,0-.26,2,13.17,13.17,0,0,1-3.86.29h-53a53.28,53.28,0,0,1,8.32-25,24.73,24.73,0,0,1,22.19-10.66,22.81,22.81,0,0,1,16.53,5.63,31.25,31.25,0,0,1,8.07,13.07A45.35,45.35,0,0,1,379,254.77Z" transform="translate(-4.17 -10.1)" style="fill:#19003e"/><path id="패스_368" data-name="패스 368" d="M274,361.38c.5,1.69,0,2.53-1.54,2.53h-34.1a3.21,3.21,0,0,1-3.36-2.05l-17.16-62.28H151.27l-16.4,62a2.9,2.9,0,0,1-.91,1.8,3.45,3.45,0,0,1-2.17.5H101.31a2.53,2.53,0,0,1-2-.63c-.35-.44-.35-1.25,0-2.45l58.66-206.21a21.89,21.89,0,0,0,1.41-6c.26-2.3.54-5.89.85-10.88,0-1.38.53-2,1.54-2h43.83a2.55,2.55,0,0,1,1.68.38,3.8,3.8,0,0,1,.64,1.68Zm-88.92-95.33h24.6q-3.06-12.3-8.2-31-4.86-18-9.48-36.14t-7.42-30.51h-.5q-6.93,34.08-19.73,80.73-2.31,8.72-4.62,16.9h25.35Z" transform="translate(-4.17 -10.1)" style="fill:#d392ff"/><path id="패스_369" data-name="패스 369" d="M209.66,266.06h-50q2.31-8.21,4.62-16.9,12.78-46.62,19.73-80.73h.5q2.83,12.31,7.42,30.51t9.48,36.14Q206.6,253.74,209.66,266.06Z" transform="translate(-4.17 -10.1)" style="fill:#19003e"/></svg>