<?xml version="1.0" encoding="utf-8"?>
<!-- Generator: Adobe Illustrator 26.0.1, SVG Export Plug-In . SVG Version: 6.00 Build 0)  -->
<svg version="1.1" id="레이어_1" xmlns="http://www.w3.org/2000/svg" xmlns:xlink="http://www.w3.org/1999/xlink" x="0px"
	 y="0px" viewBox="0 0 512 320" style="enable-background:new 0 0 512 320;" xml:space="preserve">
<style type="text/css">
	.st0{fill:#362701;}
	.st1{fill:#F03C2E;}
</style>
<path id="패스_350" class="st0" d="M306.2,126.3c-11.1,0-19.3,5.4-19.3,18.5c0,9.9,5.4,16.7,18.7,16.7c9.3,1.1,17.7-5.6,18.8-15
	c0,0,0,0,0,0c1-9.5-5.3-18.2-14.6-20.2C308.6,126.1,307.4,126.1,306.2,126.3L306.2,126.3z M284,218.7c-2.9,2.9-4.8,6.6-5.2,10.7
	c0,8,10.3,10.5,24.4,10.5c11.7,0,27.6-0.8,27.6-11.7c0-6.5-7.6-6.9-17.3-7.5L284,218.7L284,218.7z M343.6,126.9
	c4.8,5.7,7.4,12.9,7.5,20.3c0,22.3-17.5,35.4-42.9,35.4c-5.4,0.1-10.7-0.6-15.9-1.8l-6.6,10.7l19.7,1.2c34.8,2.2,55.3,3.2,55.3,30
	c0,23.1-20.3,36.2-55.3,36.2c-36.4,0-50.3-9.2-50.3-25.2c0-9.1,4-13.9,11.1-20.5c-5.5-2-9.1-7.4-8.8-13.2c0.3-4.7,2.4-9.1,5.8-12.3
	c3.6-3.8,7.6-7.6,12.5-12.1c-11.2-5.8-17.9-17.6-17.3-30.2c0-23.1,15.3-39,46.1-39c6.2-0.2,12.5,0.5,18.5,2h39.2v17.1L343.6,126.9"
	/>
<path id="패스_351" class="st0" d="M397.5,90.3c-9.1,0.9-17.2-5.7-18.1-14.8c0,0,0,0,0,0c-0.1-1.1-0.1-2.2,0-3.4
	c0.2-10.1,8.6-18,18.6-17.8c9.7,0.2,17.6,8.1,17.8,17.8c0.9,9.1-5.8,17.2-14.9,18.1c0,0,0,0,0,0C399.8,90.5,398.7,90.5,397.5,90.3z
	 M371.5,211.3v-15.9l10.3-1.4c2.8-0.4,3.2-1,3.2-4v-59.2c0-2.2-0.6-3.6-2.6-4.2l-10.9-3.8l2.2-16.3h41.7v83.5c0,3.2,0.2,3.6,3.2,4
	l10.3,1.4v15.9L371.5,211.3"/>
<path id="패스_352" class="st0" d="M508.5,203.5c-10.2,5-21.4,7.7-32.8,8c-24,0-33-9.6-33-32.4v-52.7c0-1.2,0-2-1.6-2H427v-17.9
	c17.7-2,24.8-10.9,27-32.8h19.1v28.6c0,1.4,0,2,1.6,2H503v20.1h-30v48.1c0,11.9,2.8,16.5,13.7,16.5c5.6-0.1,11.1-1.2,16.3-3.2
	L508.5,203.5"/>
<path id="패스_353" class="st1" d="M210.3,150.7l-92-92c-5.3-5.3-13.9-5.3-19.2,0l0,0L80,77.7l24.2,24.2
	c8.4-2.9,17.6,1.7,20.4,10.1c1.2,3.4,1.1,7.1,0,10.5l23.4,23.4c8.4-2.9,17.6,1.6,20.5,10c2.9,8.4-1.6,17.6-10,20.5
	c-8.4,2.9-17.6-1.6-20.5-10c-1.3-3.7-1.2-7.8,0.3-11.4l-21.8-21.8v57.3c8,4,11.3,13.6,7.3,21.6s-13.6,11.3-21.6,7.3
	s-11.3-13.6-7.3-21.6c1.7-3.5,4.7-6.3,8.3-7.8v-57.9c-8.3-3.4-12.2-12.8-8.8-21.1c0,0,0,0,0-0.1L70.6,87.1L7.5,150.2
	c-5.3,5.3-5.3,13.9,0,19.2l0,0l92,92c5.3,5.3,13.9,5.3,19.2,0l0,0l91.6-91.6C215.5,164.5,215.5,155.9,210.3,150.7"/>
</svg>
