<?xml version="1.0" encoding="utf-8"?>
<!-- Generator: Adobe Illustrator 26.0.1, SVG Export Plug-In . SVG Version: 6.00 Build 0)  -->
<svg version="1.1" id="레이어_1" xmlns="http://www.w3.org/2000/svg" xmlns:xlink="http://www.w3.org/1999/xlink" x="0px"
	 y="0px" viewBox="0 0 380 512" style="enable-background:new 0 0 380 512;" xml:space="preserve">
<style type="text/css">
	.st0{fill:#E44D26;}
	.st1{fill:#F16529;}
	.st2{fill:#EBEBEB;}
	.st3{fill:#FFFFFF;}
</style>
<path id="패스_314" class="st0" d="M43.7,468.1L11.1,104.4h357.8l-32.6,363.7l-146.5,40.4L43.7,468.1z"/>
<path id="패스_315" class="st1" d="M187,476.9l120.4-33.4l28.3-317.2H187V476.9z"/>
<path id="패스_316" class="st2" d="M191.3,268.5h-60.2l-4.2-46.6h64.4v-45.5H77.2l1.1,12.2L89.5,314h101.9V268.5z"/>
<path id="패스_317" class="st2" d="M191.1,383.9l-0.2,0l-50.7-13.7L137,334H91.2l6.4,71.5l93.3,25.9l0.2-0.1V383.9z"/>
<path id="패스_318" d="M45,3.5h23.1v22.9h21.1V3.5h23.2v69.2H89.2V49.6H68.1v23.2H45V3.5z"/>
<path id="패스_319" d="M140.6,26.5h-20.4v-23h63.9v23h-20.4v46.3h-23.2V26.5z"/>
<path id="패스_320" d="M192.6,3.5h24.1l14.8,24.3l14.8-24.3h24.1v69.2h-23V38.4l-16,24.6h-0.3l-15.9-24.6v34.3h-22.7L192.6,3.5z"
	/>
<path id="패스_321" d="M280,3.5h23.1v46.4h32.5v22.9H280V3.5z"/>
<path id="패스_322" class="st3" d="M188.6,265.9v45.5h56.1l-5.3,59.1l-50.8,13.7v47.4l93.3-25.9l0.7-7.7l10.7-119.9l1.1-12.2
	L188.6,265.9L188.6,265.9z"/>
<path id="패스_323" class="st3" d="M188.5,177.1v45.6h110l0.9-10.2l2.1-23.1l1.1-12.2L188.5,177.1z"/>
</svg>
