<svg id="레이어_1" data-name="레이어 1" xmlns="http://www.w3.org/2000/svg" viewBox="0 0 505 492.47"><path id="패스_380" data-name="패스 380" d="M509,98.19V411.81a89.21,89.21,0,0,1-89,89.42H93.39A89.21,89.21,0,0,1,4,412.19v-314A89.21,89.21,0,0,1,93,8.77H419.54a89.22,89.22,0,0,1,89.43,89v.42ZM487.73,403.61V106.14a76.28,76.28,0,0,0-76.19-76.36H101.37A76.49,76.49,0,0,0,25,106.38V403.59a76.54,76.54,0,0,0,76.35,76.59H411.63a73.07,73.07,0,0,0,53.57-22,76,76,0,0,0,22.53-54.55Z" transform="translate(-4 -8.77)" style="fill:#ff7e1b"/><path id="패스_381" data-name="패스 381" d="M487.73,106.12V403.58a76,76,0,0,1-22.53,54.59,73,73,0,0,1-53.6,22H101.38A76.53,76.53,0,0,1,25,403.61V106.39A76.49,76.49,0,0,1,101.38,29.8h310A76.27,76.27,0,0,1,487.74,106v.13ZM391.4,380V196.32c0-2.23-.94-3.14-2.79-2.83H352.22c-2.07,0-3,.94-2.83,2.83l.26,183.43c0,1.88,1,2.92,3.08,3.08h35.88c1.35,0,2.17-.25,2.41-.76A4.61,4.61,0,0,0,391.4,380Zm2.83-236.76q0-21.26-23.82-23.81a24.19,24.19,0,0,0-16.93,6.28,22.51,22.51,0,0,0-6.91,17.53A21.29,21.29,0,0,0,365,167.06a20.71,20.71,0,0,0,4.85.06A25.41,25.41,0,0,0,387.32,161a22.41,22.41,0,0,0,6.9-17.69ZM313,382.83c1.88,0,2.39-1,1.54-3.08L240.48,128.41a3.37,3.37,0,0,0-.75-1.79,3,3,0,0,0-2-.51H189c-1.19,0-1.85.76-2,2.3-.16,5.47-.42,9.59-.76,12.31a40,40,0,0,1-1.54,7.17L118.53,379.25a5.26,5.26,0,0,0,.13,2.7c.25.6,1.07.85,2.42.85h34.09a3.38,3.38,0,0,0,2.42-.64,5.67,5.67,0,0,0,1.16-1.91l18.44-69.95H251.5l18.95,70.2a3.84,3.84,0,0,0,3.86,2.3Z" transform="translate(-4 -8.77)" style="fill:#41322a"/><path id="패스_382" data-name="패스 382" d="M391.39,196.32V380a4.79,4.79,0,0,1-.37,2c-.26.5-1.07.76-2.42.76H352.72c-2.05-.16-3.08-1.2-3.08-3.08l-.25-183.44q-.28-2.82,2.82-2.82H388.6C390.45,193.19,391.39,194.09,391.39,196.32Z" transform="translate(-4 -8.77)" style="fill:#ff7e1b"/><path id="패스_383" data-name="패스 383" d="M370.39,119.46q23.81,2.54,23.82,23.82A22.4,22.4,0,0,1,387.3,161a25.4,25.4,0,0,1-17.44,6.16,21.32,21.32,0,0,1-23.31-23.85,22.55,22.55,0,0,1,6.91-17.53A24.19,24.19,0,0,1,370.39,119.46Z" transform="translate(-4 -8.77)" style="fill:#ff7e1b"/><path id="패스_384" data-name="패스 384" d="M314.57,379.75c.84,2.07.34,3.08-1.54,3.08H274.31a3.82,3.82,0,0,1-3.86-2.3L251.5,310.34H177.19l-18.44,69.94a5.81,5.81,0,0,1-1.16,1.92,3.38,3.38,0,0,1-2.42.63H121.08c-1.36,0-2.18-.29-2.42-.84a5.27,5.27,0,0,1-.13-2.7l66.12-231.36a39.9,39.9,0,0,0,1.54-7.16c.34-2.74.59-6.86.75-12.32.19-1.54.85-2.3,2.05-2.3h48.7a3,3,0,0,1,2,.51,3.31,3.31,0,0,1,.76,1.79ZM186.72,272.92H241.8q-3.08-12.32-8-31c-3.73-13.85-7.48-27.93-11.12-42.29s-6.54-26.49-8.61-36.38h-.51q-3.82,21.53-11.53,51.5t-15.39,58.16Z" transform="translate(-4 -8.77)" style="fill:#ff7e1b"/><path id="패스_385" data-name="패스 385" d="M241.76,272.92H186.68q7.69-28.19,15.37-58.15t11.53-51.51h.51q3.1,14.85,8.61,36.39c3.64,14.36,7.38,28.44,11.13,42.29Q238.69,260.6,241.76,272.92Z" transform="translate(-4 -8.77)" style="fill:#41322a"/></svg>