<?xml version="1.0" encoding="utf-8"?>
<!-- Generator: Adobe Illustrator 26.0.1, SVG Export Plug-In . SVG Version: 6.00 Build 0)  -->
<svg version="1.1" id="레이어_1" xmlns="http://www.w3.org/2000/svg" xmlns:xlink="http://www.w3.org/1999/xlink" x="0px"
	 y="0px" viewBox="0 0 512 512" style="enable-background:new 0 0 512 512;" xml:space="preserve">
<style type="text/css">
	.st0{fill:#FF7E1B;}
	.st1{fill:#41322A;}
</style>
<path id="패스_380" class="st0" d="M508.5,99.2v313.6c0.1,49.3-39.7,89.3-89,89.4c0,0,0,0,0,0H92.9c-49.3,0.1-89.3-39.8-89.4-89
	c0,0,0,0,0,0v-314C3.4,49.9,43.2,9.9,92.5,9.8c0,0,0,0,0,0H419c49.3-0.1,89.3,39.7,89.4,89L508.5,99.2L508.5,99.2z M487.2,404.6
	V107.1c0-42.1-34.1-76.3-76.2-76.4H100.9c-42.2,0.1-76.4,34.4-76.4,76.6v297.2c0,42.2,34.1,76.5,76.3,76.6h310.3
	c20.1,0.4,39.5-7.6,53.6-22C479.3,444.8,487.4,425.1,487.2,404.6L487.2,404.6z"/>
<path id="패스_381" class="st1" d="M487.2,107.1v297.5c0.2,20.5-8,40.2-22.5,54.6c-14.1,14.4-33.5,22.4-53.6,22H100.9
	c-42.2-0.1-76.4-34.3-76.4-76.6V107.4c-0.1-42.2,34.1-76.5,76.4-76.6h310c42.1,0,76.3,34.1,76.4,76.2c0,0,0,0,0,0L487.2,107.1
	L487.2,107.1z M390.9,381V197.3c0-2.2-0.9-3.1-2.8-2.8h-36.4c-2.1,0-3,0.9-2.8,2.8l0.3,183.4c0,1.9,1,2.9,3.1,3.1h35.9
	c1.4,0,2.2-0.2,2.4-0.8C390.8,382.4,390.9,381.7,390.9,381z M393.7,144.2c0-14.2-7.9-22.1-23.8-23.8c-6.2-0.2-12.3,2.1-16.9,6.3
	c-4.8,4.6-7.3,11-6.9,17.5c-1.5,11.7,6.8,22.3,18.4,23.8c0,0,0,0,0,0c1.6,0.2,3.2,0.2,4.9,0.1c6.4,0.2,12.6-2,17.5-6.1
	C391.6,157.4,394.2,150.9,393.7,144.2L393.7,144.2z M312.5,383.8c1.9,0,2.4-1,1.5-3.1L240,129.4c-0.1-0.7-0.3-1.3-0.8-1.8
	c-0.6-0.4-1.3-0.6-2-0.5h-48.7c-1.2,0-1.9,0.8-2,2.3c-0.2,5.5-0.4,9.6-0.8,12.3c-0.3,2.4-0.8,4.8-1.5,7.2L118,380.2
	c-0.2,0.9-0.1,1.8,0.1,2.7c0.2,0.6,1.1,0.9,2.4,0.9h34.1c0.9,0.1,1.7-0.1,2.4-0.6c0.5-0.6,0.9-1.2,1.2-1.9l18.4-70H251l19,70.2
	c0.7,1.5,2.2,2.4,3.9,2.3L312.5,383.8z"/>
<path id="패스_382" class="st0" d="M390.9,197.3V381c0,0.7-0.1,1.4-0.4,2c-0.3,0.5-1.1,0.8-2.4,0.8h-35.9c-2-0.2-3.1-1.2-3.1-3.1
	l-0.2-183.4c-0.2-1.9,0.8-2.8,2.8-2.8h36.4C390,194.2,390.9,195.1,390.9,197.3z"/>
<path id="패스_383" class="st0" d="M369.9,120.5c15.9,1.7,23.8,9.6,23.8,23.8c0.4,6.6-2.1,13.1-6.9,17.7
	c-4.8,4.2-11.1,6.4-17.4,6.2c-11.7,1.2-22.2-7.3-23.4-19.1c-0.2-1.6-0.1-3.2,0.1-4.8c-0.4-6.6,2.2-13,6.9-17.5
	C357.6,122.6,363.6,120.3,369.9,120.5z"/>
<path id="패스_384" class="st0" d="M314.1,380.7c0.8,2.1,0.3,3.1-1.5,3.1h-38.7c-1.6,0.2-3.2-0.8-3.9-2.3l-19-70.2h-74.3
	l-18.4,69.9c-0.3,0.7-0.7,1.4-1.2,1.9c-0.7,0.5-1.6,0.7-2.4,0.6h-34.1c-1.4,0-2.2-0.3-2.4-0.8c-0.3-0.9-0.3-1.8-0.1-2.7l66.1-231.4
	c0.7-2.3,1.2-4.7,1.5-7.2c0.3-2.7,0.6-6.9,0.8-12.3c0.2-1.5,0.9-2.3,2.1-2.3h48.7c0.7-0.1,1.4,0.1,2,0.5c0.4,0.5,0.7,1.1,0.8,1.8
	L314.1,380.7z M186.2,273.9h55.1c-2.1-8.2-4.7-18.5-8-31c-3.7-13.9-7.5-27.9-11.1-42.3s-6.5-26.5-8.6-36.4h-0.5
	c-2.5,14.4-6.4,31.5-11.5,51.5C196.4,235.7,191.3,255.1,186.2,273.9L186.2,273.9z"/>
<path id="패스_385" class="st1" d="M241.3,273.9h-55.1c5.1-18.8,10.2-38.2,15.4-58.1s9-37.1,11.5-51.5h0.5
	c2.1,9.9,4.9,22,8.6,36.4c3.6,14.4,7.4,28.4,11.1,42.3C236.6,255.4,239.2,265.7,241.3,273.9z"/>
</svg>
