<svg id="레이어_1" data-name="레이어 1" xmlns="http://www.w3.org/2000/svg" viewBox="0 0 505 492.46"><path id="패스_375" data-name="패스 375" d="M509,99.2V412.8a89.21,89.21,0,0,1-89,89.43H93.43A89.21,89.21,0,0,1,4,413.23V99.2A89.21,89.21,0,0,1,93,9.77H419.57a89.21,89.21,0,0,1,89.43,89v.43ZM487.72,404.61V107.14a76.26,76.26,0,0,0-76.18-76.35H101.34A76.54,76.54,0,0,0,25,107.38v297.2a76.59,76.59,0,0,0,76.36,76.59H411.61a72.94,72.94,0,0,0,53.54-22,76,76,0,0,0,22.57-54.55Z" transform="translate(-4 -9.77)" style="fill:#eb43a3"/><path id="패스_376" data-name="패스 376" d="M487.72,107.12V404.58a75.92,75.92,0,0,1-22.55,54.58,72.91,72.91,0,0,1-53.54,22H101.33A76.59,76.59,0,0,1,25,404.6V107.39A76.55,76.55,0,0,1,101.33,30.8h310A76.28,76.28,0,0,1,487.71,107v.13Zm-112.48,262c.34-.25.53-.78.53-1.68-.84-9.36-1.29-17.32-1.29-23.82V122.5a2,2,0,0,0-.38-1.41,3.2,3.2,0,0,0-1.94-.38H333.73a2.8,2.8,0,0,0-1.54.5,2,2,0,0,0-.76,1.8v62.52c-2.23-.16-4.21-.25-6-.25h-6.53a90.57,90.57,0,0,0-71,29.06A103.2,103.2,0,0,0,221.77,286q0,49.49,25.36,73.8a89.47,89.47,0,0,0,64.61,24.36,151.18,151.18,0,0,0,62-14.1,9.57,9.57,0,0,0,1.5-.92Zm-195,8.07V123.26c0-1.85-.94-2.69-2.83-2.53H140.8c-2,0-3.08,1-3.08,2.83V377.19a2.73,2.73,0,0,0,2.3,3.08,3.39,3.39,0,0,0,.78,0h36.39a4.18,4.18,0,0,0,2.57-.51,4.26,4.26,0,0,0,.51-2.59Z" transform="translate(-4 -9.77)" style="fill:#412534"/><path id="패스_377" data-name="패스 377" d="M375.77,367.43a2.11,2.11,0,0,1-.53,1.68,8.54,8.54,0,0,1-1.54.91,151,151,0,0,1-62,14.11,89.51,89.51,0,0,1-64.57-24.35q-25.37-24.31-25.36-73.8a103.16,103.16,0,0,1,26.14-71.61,90.54,90.54,0,0,1,71-29.06h6.53c1.8,0,3.81.09,6,.25V123a2,2,0,0,1,.76-1.79,2.81,2.81,0,0,1,1.54-.51h38.43a3.2,3.2,0,0,1,1.94.38,2,2,0,0,1,.38,1.42V343.64C374.45,350.12,374.89,358.07,375.77,367.43Zm-44.34-23.82V224a33.11,33.11,0,0,0-14.11-2.52,46.65,46.65,0,0,0-37.14,16.65,68.05,68.05,0,0,0-14.36,45.85q0,33.32,14.23,47.79a46.57,46.57,0,0,0,34.51,14.48,54.34,54.34,0,0,0,16.88-2.6Z" transform="translate(-4 -9.77)" style="fill:#eb43a3"/><path id="패스_378" data-name="패스 378" d="M331.44,224V343.59a54.16,54.16,0,0,1-16.9,2.58A46.56,46.56,0,0,1,280,331.69Q265.8,317.22,265.8,283.9a68,68,0,0,1,14.36-45.85,46.62,46.62,0,0,1,37.18-16.63A33.23,33.23,0,0,1,331.44,224Z" transform="translate(-4 -9.77)" style="fill:#412534"/><path id="패스_379" data-name="패스 379" d="M180.27,123.27V377.18a4.33,4.33,0,0,1-.51,2.57,4.12,4.12,0,0,1-2.57.51H140.8a2.73,2.73,0,0,1-3.08-2.3,2.55,2.55,0,0,1,0-.78V123.55c0-1.89,1-2.83,3.08-2.83h36.64C179.33,120.56,180.27,121.41,180.27,123.27Z" transform="translate(-4 -9.77)" style="fill:#eb43a3"/></svg>