<?xml version="1.0" encoding="utf-8"?>
<!-- Generator: Adobe Illustrator 26.0.1, SVG Export Plug-In . SVG Version: 6.00 Build 0)  -->
<svg version="1.1" id="레이어_1" xmlns="http://www.w3.org/2000/svg" xmlns:xlink="http://www.w3.org/1999/xlink" x="0px"
	 y="0px" viewBox="0 0 512 512" style="enable-background:new 0 0 512 512;" xml:space="preserve">
<style type="text/css">
	.st0{fill:#EB43A3;}
	.st1{fill:#412534;}
</style>
<path id="패스_375" class="st0" d="M508.5,99.2v313.6c0.1,49.3-39.7,89.3-89,89.4c0,0,0,0,0,0H92.9c-49.3,0.1-89.3-39.7-89.4-89
	c0,0,0,0,0,0v-314C3.4,49.9,43.2,9.9,92.5,9.8c0,0,0,0,0,0h326.6c49.3-0.1,89.3,39.7,89.4,89c0,0,0,0,0,0
	C508.5,98.8,508.5,99.2,508.5,99.2z M487.2,404.6V107.1c0-42.1-34.1-76.3-76.2-76.3c0,0,0,0,0,0H100.8
	c-42.2,0.1-76.4,34.4-76.3,76.6v297.2c0,42.2,34.2,76.5,76.4,76.6h310.2c20.1,0.4,39.5-7.6,53.5-22
	C479.2,444.8,487.4,425.1,487.2,404.6L487.2,404.6z"/>
<path id="패스_376" class="st1" d="M487.2,107.1v297.5c0.2,20.5-8,40.2-22.5,54.6c-14,14.4-33.4,22.4-53.5,22H100.8
	c-42.2-0.1-76.3-34.4-76.3-76.6V107.4c0-42.2,34.1-76.5,76.3-76.6h310c42.1-0.1,76.3,34.1,76.4,76.2c0,0,0,0,0,0L487.2,107.1
	L487.2,107.1z M374.7,369.1c0.3-0.2,0.5-0.8,0.5-1.7c-0.8-9.4-1.3-17.3-1.3-23.8V122.5c0.1-0.5-0.1-1-0.4-1.4
	c-0.6-0.3-1.3-0.5-1.9-0.4h-38.4c-0.6,0-1.1,0.2-1.5,0.5c-0.5,0.4-0.8,1.1-0.8,1.8v62.5c-2.2-0.2-4.2-0.2-6-0.2h-6.5
	c-26.8-1.3-52.8,9.3-71,29.1c-17.5,19.7-26.9,45.3-26.1,71.7c0,33,8.5,57.6,25.4,73.8c17.4,16.4,40.7,25.2,64.6,24.4
	c21.4-0.3,42.6-5.1,62-14.1C373.8,369.8,374.3,369.5,374.7,369.1L374.7,369.1z M179.7,377.2V123.3c0-1.9-0.9-2.7-2.8-2.5h-36.6
	c-2,0-3.1,1-3.1,2.8v253.6c-0.2,1.5,0.8,2.9,2.3,3.1c0.3,0,0.5,0,0.8,0h36.4c0.9,0.1,1.8-0.1,2.6-0.5
	C179.7,379,179.9,378.1,179.7,377.2L179.7,377.2z"/>
<path id="패스_377" class="st0" d="M375.3,367.4c0.1,0.6-0.1,1.2-0.5,1.7c-0.5,0.4-1,0.7-1.5,0.9c-19.4,9.1-40.6,13.9-62,14.1
	c-23.9,0.8-47.2-7.9-64.6-24.4c-16.9-16.2-25.4-40.8-25.4-73.8c-0.7-26.3,8.6-52,26.1-71.6c18.2-19.7,44.2-30.4,71-29.1h6.5
	c1.8,0,3.8,0.1,6,0.2V123c-0.1-0.7,0.2-1.4,0.8-1.8c0.5-0.3,1-0.5,1.5-0.5h38.4c0.7-0.1,1.3,0.1,1.9,0.4c0.3,0.4,0.4,0.9,0.4,1.4
	v221.1C374,350.1,374.4,358.1,375.3,367.4z M330.9,343.6V224c-4.5-1.9-9.3-2.7-14.1-2.5c-14.3-0.4-28,5.7-37.1,16.6
	c-10.2,13-15.3,29.3-14.4,45.8c0,22.2,4.7,38.1,14.2,47.8c9,9.4,21.5,14.7,34.5,14.5C319.8,346.3,325.5,345.4,330.9,343.6
	L330.9,343.6z"/>
<path id="패스_378" class="st1" d="M330.9,224v119.6c-5.5,1.7-11.2,2.6-16.9,2.6c-13,0.2-25.6-5-34.5-14.5
	c-9.5-9.6-14.2-25.6-14.2-47.8c-1-16.5,4.2-32.8,14.4-45.9c9.2-11,22.9-17.1,37.2-16.6C321.7,221.2,326.5,222.1,330.9,224z"/>
<path id="패스_379" class="st0" d="M179.8,123.3v253.9c0.1,0.9-0.1,1.8-0.5,2.6c-0.8,0.4-1.7,0.6-2.6,0.5h-36.4
	c-1.5,0.2-2.9-0.8-3.1-2.3c0-0.3,0-0.5,0-0.8V123.6c0-1.9,1-2.8,3.1-2.8h36.6C178.8,120.6,179.8,121.4,179.8,123.3z"/>
</svg>
