<svg id="레이어_1" data-name="레이어 1" xmlns="http://www.w3.org/2000/svg" viewBox="0 0 419.88 505"><path id="패스_340" data-name="패스 340" d="M443.62,398.7l22,.12-44.21,59.89a25.87,25.87,0,0,0-3.56,5,112.17,112.17,0,0,0-4.27,15.68l-20.12.1a83.17,83.17,0,0,0,3-17.22,66.61,66.61,0,0,0-4.28-15.68c-1.51-5.3-3.56-15.68-3.56-15.68h20.68l2.85,11.4,31.49-43.61" transform="translate(-45.73 -3.83)" style="fill:#1a1918"/><path id="패스_341" data-name="패스 341" d="M402,410.38c4.06,2.45,6.55,15.93,6.55,15.93s-21.23.32-32.79.32h-10l-12.12,52.76H335.12s11.54-57.34,14.27-67.74c.88-3.37,6-2.8,14.76-2.8h13.93c9,0,19.51-1.15,23.92,1.51" transform="translate(-45.73 -3.83)" style="fill:#1a1918"/><path id="패스_342" data-name="패스 342" d="M315.69,436.08a11.11,11.11,0,0,0-2-7.31c-2.17-3.35-4.2-4.12-9.88-4.3-16.09-.5-15.79,11.43-15.79,11.43Zm17.5-13.67A87.47,87.47,0,0,1,331,450.93s-23.49-.4-36.39,0c-4,.11-8.79-.44-10,1.4-1.68,2.61.61,6.62,2.56,8.32a16.13,16.13,0,0,0,8.14,2.37,270,270,0,0,0,32.31.34l-3.79,16.8A227.05,227.05,0,0,1,277.51,478a15.76,15.76,0,0,1-7.84-4.28,25,25,0,0,1-1.49-2,19.51,19.51,0,0,1-2.1-3.69c-3.5-9.41.42-27.42,4.28-37.09.45-1.12,1-2.55,1.6-3.75.74-1.5,1.4-3.2,2-4.1.4-.62.9-1,1.31-1.6a22.61,22.61,0,0,1,1.55-2,29.54,29.54,0,0,1,5-4.28,47.13,47.13,0,0,1,32.09-7.13A24.49,24.49,0,0,1,331,416a23.84,23.84,0,0,1,2.19,6.43Z" transform="translate(-45.73 -3.83)" style="fill:#1a1918"/><path id="패스_343" data-name="패스 343" d="M248.13,408.8l18-.1s-10,47.52-15.12,70.68H230.3c-14.45,0-27.29,1.79-32.79-8.56-5.32-10.05-.25-26.59,2.14-37.79,1.68-7.94,5.22-24.18,5.22-24.18l18.63-.17S218.23,434,216,446.58c-.78,4.52-2.4,8.78-.7,12.12,1.61,3.18,3.85,3.41,10.7,3.56,2.17.05,9.26,0,9.26,0l12.84-53.47" transform="translate(-45.73 -3.83)" style="fill:#1a1918"/><path id="패스_344" data-name="패스 344" d="M164,443a68.27,68.27,0,0,0,4.27-20A17.11,17.11,0,0,0,159,409.52a23.75,23.75,0,0,0-24.25,5.7,39.61,39.61,0,0,0-8.56,20.67,31.18,31.18,0,0,0,0,18.54c4.29,9,17.68,7.05,32.09,7.13C160.43,455.83,162.21,449.39,164,443ZM189,416.65c2.05,14.93-5.82,31.41-11.25,45.74,5.54.5,10.38-.08,10.73.34a58.39,58.39,0,0,1-5.13,17.14c-4.39.11-19,.24-25,.24-19.8,0-38.33,1.29-47.78-8.56a31,31,0,0,1-7.13-15.68,66.82,66.82,0,0,1,2.14-24.25,73.31,73.31,0,0,1,7.14-18.53,47.36,47.36,0,0,1,62.74-17.83c.29.17,1.31,1,1.54,1.13a31,31,0,0,1,12,20.26Z" transform="translate(-45.73 -3.83)" style="fill:#1a1918"/><path id="패스_345" data-name="패스 345" d="M101.35,408.89c-1.2,5.45-2.4,11.63-3.66,17h-20c1.55-6,2.73-11.89,4.28-17.11,6.38,0,12.33.09,19.34.09" transform="translate(-45.73 -3.83)" style="fill:#1a1918"/><path id="패스_346" data-name="패스 346" d="M77,430.9H96.27c-2.52,13.94-7.51,36.4-11.41,52.05-2.44,9.8-4.08,16.94-10.7,22.1-.59.46-.93.25-1.4.7a27.2,27.2,0,0,1-10,2.85,142.63,142.63,0,0,1-17.05-.06c1.63-6,3.5-13.13,4.93-18.48,15.21,1.84,15.6-12.53,18.54-26.38,1.71-8,6.87-29.59,7.85-32.8" transform="translate(-45.73 -3.83)" style="fill:#1a1918"/><path id="패스_347" data-name="패스 347" d="M437.12,279.29l-1.68,4.34C406.87,339.26,356.25,373.4,284,374.9a211.71,211.71,0,0,1-86.93-17.38A224.55,224.55,0,0,1,92.84,259C63,201.14,57.57,120.65,119.7,60.53c1,0-7.54,13-6.58,13l-1.71,5.56C66.62,219.28,204.56,339.38,338.63,325.65a176,176,0,0,0,98.52-46.36" transform="translate(-45.73 -3.83)" style="fill:#21609b"/><path id="패스_348" data-name="패스 348" d="M356,221.34a128.25,128.25,0,0,0,89.82-37.67c-18.26,46.33-71.11,76.12-142,66.64-59.34-7.93-115.87-67.65-121.7-127.49-4.26-43.54,10.92-69.53,35.93-101.06a105.7,105.7,0,0,0-12.75,37.31c-9.5,94.2,75.25,161.77,150.67,162.26" transform="translate(-45.73 -3.83)" style="fill:#21609b"/><path id="패스_349" data-name="패스 349" d="M442.43,104.34c-5.25,12-35.44,34.74-48.77,37.57-52.79,11.25-86.6-13.78-104.28-42.27A130.52,130.52,0,0,1,281,80.81c-6.86-23.35-3.71-58.68,16.8-77A96.13,96.13,0,0,0,294,54.53,112.25,112.25,0,0,0,308,85a80.12,80.12,0,0,0,31.87,28.17,84.93,84.93,0,0,0,16,7.7c13.3,3.91,41.38,14.23,86.64-16.57" transform="translate(-45.73 -3.83)" style="fill:#21609b"/></svg>