<?xml version="1.0" encoding="utf-8"?>
<!-- Generator: Adobe Illustrator 26.0.1, SVG Export Plug-In . SVG Version: 6.00 Build 0)  -->
<svg version="1.1" id="레이어_1" xmlns="http://www.w3.org/2000/svg" xmlns:xlink="http://www.w3.org/1999/xlink" x="0px"
	 y="0px" viewBox="0 0 512 512" style="enable-background:new 0 0 512 512;" xml:space="preserve">
<style type="text/css">
	.st0{fill:#1A1918;}
	.st1{fill:#21609B;}
</style>
<path id="패스_340" class="st0" d="M443.9,398.4l22,0.1l-44.2,59.9c-1.4,1.5-2.6,3.2-3.6,5c-1.8,5.1-3.2,10.4-4.3,15.7l-20.1,0.1
	c1.6-5.6,2.6-11.4,3-17.2c-0.8-5.4-2.2-10.6-4.3-15.7c-1.5-5.3-3.6-15.7-3.6-15.7h20.7l2.9,11.4L443.9,398.4"/>
<path id="패스_341" class="st0" d="M402.3,410.1c4.1,2.5,6.5,15.9,6.5,15.9s-21.2,0.3-32.8,0.3h-10L354,479.1h-18.5
	c0,0,11.5-57.3,14.3-67.7c0.9-3.4,6-2.8,14.8-2.8h13.9C387.4,408.5,397.9,407.4,402.3,410.1"/>
<path id="패스_342" class="st0" d="M316,435.8c0.2-2.6-0.5-5.2-2-7.3c-2.2-3.4-4.2-4.1-9.9-4.3c-16.1-0.5-15.8,11.4-15.8,11.4
	L316,435.8z M333.5,422.1c0.8,9.6,0.1,19.2-2.2,28.5c0,0-23.5-0.4-36.4,0c-4,0.1-8.8-0.4-10,1.4c-1.7,2.6,0.6,6.6,2.6,8.3
	c2.5,1.5,5.3,2.3,8.1,2.4c10.8,0.8,21.5,0.9,32.3,0.3l-3.8,16.8c-15.5,0.9-31,0.1-46.3-2.2c-3-0.6-5.7-2.1-7.8-4.3
	c-0.5-0.6-1-1.3-1.5-2c-0.8-1.1-1.5-2.4-2.1-3.7c-3.5-9.4,0.4-27.4,4.3-37.1c0.5-1.1,1-2.5,1.6-3.8c0.7-1.5,1.4-3.2,2-4.1
	c0.4-0.6,0.9-1,1.3-1.6c0.5-0.7,1-1.4,1.5-2c1.5-1.6,3.2-3,5-4.3c9.5-6.2,20.9-8.7,32.1-7.1c6.5,0.3,12.7,3.1,17.1,7.9
	C332.4,417.7,333.1,419.9,333.5,422.1L333.5,422.1z"/>
<path id="패스_343" class="st0" d="M248.5,408.5l18-0.1c0,0-10,47.5-15.1,70.7h-20.7c-14.4,0-27.3,1.8-32.8-8.6
	c-5.3-10-0.2-26.6,2.1-37.8c1.7-7.9,5.2-24.2,5.2-24.2l18.6-0.2c0,0-5.3,25.3-7.5,37.9c-0.8,4.5-2.4,8.8-0.7,12.1
	c1.6,3.2,3.9,3.4,10.7,3.6c2.2,0,9.3,0,9.3,0L248.5,408.5"/>
<path id="패스_344" class="st0" d="M164.3,442.7c2.4-6.4,3.9-13.2,4.3-20c-0.6-5.8-4.1-10.9-9.3-13.5c-8.5-2.8-17.9-0.6-24.2,5.7
	c-4.8,5.9-7.8,13.1-8.6,20.7c-1.9,6-1.9,12.5,0,18.5c4.3,9,17.7,7,32.1,7.1C160.8,455.5,162.5,449.1,164.3,442.7z M189.3,416.3
	c2.1,14.9-5.8,31.4-11.2,45.7c5.5,0.5,10.4-0.1,10.7,0.3c-0.8,5.9-2.5,11.7-5.1,17.1c-4.4,0.1-19,0.2-25,0.2
	c-19.8,0-38.3,1.3-47.8-8.6c-3.8-4.4-6.3-9.9-7.1-15.7c-0.8-8.1-0.1-16.4,2.1-24.2c1.5-6.5,3.9-12.7,7.1-18.5
	c12.8-21.7,40.4-29.5,62.7-17.8c0.3,0.2,1.3,1,1.5,1.1C183.8,401,188.2,408.3,189.3,416.3L189.3,416.3z"/>
<path id="패스_345" class="st0" d="M101.7,408.6c-1.2,5.5-2.4,11.6-3.7,17H78c1.6-6,2.7-11.9,4.3-17.1
	C88.7,408.5,94.6,408.5,101.7,408.6"/>
<path id="패스_346" class="st0" d="M77.3,430.6h19.3c-2.5,13.9-7.5,36.4-11.4,52c-2.4,9.8-4.1,16.9-10.7,22.1
	c-0.6,0.5-0.9,0.2-1.4,0.7c-3.1,1.6-6.5,2.6-10,2.9c-5.7,0.3-11.4,0.3-17-0.1c1.6-6,3.5-13.1,4.9-18.5c15.2,1.8,15.6-12.5,18.5-26.4
	C71.2,455.4,76.4,433.8,77.3,430.6"/>
<path id="패스_347" class="st1" d="M437.4,279l-1.7,4.3c-28.6,55.6-79.2,89.8-151.4,91.3c-29.9,0.4-59.5-5.5-86.9-17.4
	c-44.6-20.6-81.2-55.2-104.2-98.5C63.3,200.8,57.9,120.3,120,60.2c1,0-7.5,13-6.6,13l-1.7,5.6C66.9,218.9,204.9,339.1,339,325.3
	C375.9,320.7,410.4,304.4,437.4,279"/>
<path id="패스_348" class="st1" d="M356.3,221c33.7-0.3,66-13.8,89.8-37.7c-18.3,46.3-71.1,76.1-142,66.6
	c-59.3-7.9-115.9-67.6-121.7-127.5c-4.3-43.5,10.9-69.5,35.9-101.1c-6.6,11.5-10.9,24.2-12.8,37.3
	C196.1,152.9,280.9,220.5,356.3,221"/>
<path id="패스_349" class="st1" d="M442.8,104c-5.2,12-35.4,34.7-48.8,37.6c-52.8,11.2-86.6-13.8-104.3-42.3
	c-3.3-6-6.1-12.3-8.4-18.8c-6.9-23.3-3.7-58.7,16.8-77c-5.8,16.3-7.1,33.8-3.8,50.7c3.1,10.8,7.8,21.1,14,30.5
	c7.9,12.1,18.9,21.8,31.9,28.2c5,3.1,10.4,5.7,16,7.7C369.5,124.4,397.6,134.8,442.8,104"/>
</svg>
