<?xml version="1.0" encoding="utf-8"?>
<!-- Generator: Adobe Illustrator 26.0.1, SVG Export Plug-In . SVG Version: 6.00 Build 0)  -->
<svg version="1.1" id="레이어_1" xmlns="http://www.w3.org/2000/svg" xmlns:xlink="http://www.w3.org/1999/xlink" x="0px"
	 y="0px" viewBox="0 0 512 512" style="enable-background:new 0 0 512 512;" xml:space="preserve">
<style type="text/css">
	.st0{fill:#F7DF1E;}
</style>
<rect id="사각형_534" x="3.5" y="3.5" class="st0" width="505" height="505"/>
<path id="패스_337" d="M342.7,398c10.2,16.6,23.4,28.8,46.8,28.8c19.7,0,32.2-9.8,32.2-23.4c0-16.3-12.9-22-34.5-31.5l-11.9-5
	c-34.2-14.6-57-32.8-57-71.5c0-35.6,27.1-62.7,69.5-62.7c30.2,0,51.9,10.5,67.5,38l-37,23.7c-8.1-14.6-16.9-20.3-30.5-20.3
	c-11.3-1.1-21.4,7.1-22.6,18.4c-0.1,0.6-0.1,1.2-0.1,1.9c0,14.2,8.8,20,29.2,28.8l11.9,5c40.3,17.3,63.1,35,63.1,74.6
	c0,42.7-33.6,66.1-78.6,66.1c-44.1,0-72.5-21-86.5-48.5L342.7,398z M175.1,402.2c7.4,13.2,14.2,24.4,30.5,24.4
	c15.6,0,25.4-6.1,25.4-29.8V235.4h47.4v162c0,49.1-28.8,71.5-70.9,71.5c-30.4,1.7-58.7-15.6-71.2-43.4L175.1,402.2z"/>
</svg>
