<?xml version="1.0" encoding="utf-8"?>
<!-- Generator: Adobe Illustrator 26.0.1, SVG Export Plug-In . SVG Version: 6.00 Build 0)  -->
<svg version="1.1" id="레이어_1" xmlns="http://www.w3.org/2000/svg" xmlns:xlink="http://www.w3.org/1999/xlink" x="0px"
	 y="0px" viewBox="0 0 512 512" style="enable-background:new 0 0 512 512;" xml:space="preserve">
<style type="text/css">
	.st0{fill:#37C5FF;}
	.st1{fill:#28253A;}
</style>
<path id="패스_354" class="st0" d="M508.5,99.2v313.6c0.1,49.3-39.7,89.3-89,89.4H92.9c-49.3,0.1-89.3-39.8-89.4-89.1v-314
	C3.4,49.9,43.2,9.9,92.5,9.8H419c49.3-0.1,89.3,39.7,89.4,89c0,0,0,0,0,0L508.5,99.2L508.5,99.2z M487.2,404.6V107.1
	c0-42.1-34.1-76.3-76.2-76.3c0,0,0,0,0,0H100.9c-42.2,0.1-76.4,34.4-76.4,76.6v297.2c0,42.2,34.1,76.5,76.4,76.6h310.2
	c20.1,0.4,39.5-7.6,53.6-22C479.2,444.8,487.4,425.1,487.2,404.6L487.2,404.6z"/>
<path id="패스_355" class="st1" d="M487.2,107.1v297.5c0.1,20.5-8,40.2-22.5,54.6c-14.1,14.4-33.5,22.4-53.6,22H100.9
	c-42.2-0.1-76.4-34.4-76.4-76.6V107.4c-0.1-42.2,34.1-76.5,76.4-76.6h310c42.1,0,76.3,34.1,76.4,76.2L487.2,107.1L487.2,107.1z
	 M393.7,316.2c0.2-11-3.3-21.8-9.9-30.6c-9.6-11.1-21.7-19.8-35.2-25.5c-8.1-3.6-15.5-8.3-22.2-14.1c-3-2.9-4.8-6.8-5-11
	c0.2-4.2,2-8.1,5.2-10.9c5-4,11.5-5.9,17.9-5.2c13.4-0.2,26.6,3.2,38.2,10c2.2,0.2,3.4-0.7,3.4-2.6v-29.7c0-0.8-0.1-1.7-0.4-2.4
	c-0.3-0.9-0.9-1.6-1.7-2.2c-12.6-4.8-26-6.8-39.5-5.9c-16.2-1-32.2,4.5-44.4,15.2c-18.7,18-21.1,47.1-5.5,67.9
	c9.4,10.3,21,18.4,33.9,23.7c8,3.5,15.3,8.4,21.6,14.3c3.2,3.1,5.2,7.3,5.5,11.8c0.1,4.8-2.1,9.4-5.9,12.3c-5.6,3.7-12.3,5.4-19,4.9
	c-15.5-0.3-30.6-4.9-43.8-13.1c-1.7-0.8-2.6-0.2-2.6,1.8v32.3c0,0.7,0.1,1.3,0.2,2c0.3,0.6,0.9,1.1,1.5,1.3
	c13.7,7.2,29.1,10.6,44.6,9.7c16.2,0.6,32-4.3,45.1-13.8C388,346.6,394.7,331.7,393.7,316.2L393.7,316.2z M250.9,246.3
	c18.6-31.5,15.7-71.1-7.3-99.6c-13-14.7-34.6-22-64.8-22.1c-21.7,0-40.5,0.3-56.4,1c-1.1,0-2.2,0.3-3.2,0.8
	c-1.1,0.5-1.7,1.2-1.7,2.1V364c0,1.9,0.8,2.7,2.3,2.3h33.6c2.2,0,3.1-0.8,2.6-2.3v-84.2c2.9,0,5.3,0.1,7.2,0.2
	c2.2,0.2,5.6,0.2,10.2,0.2c15.4,0.2,30.7-2.6,45-8.2C231.5,267,242.9,258,250.9,246.3L250.9,246.3z"/>
<path id="패스_356" class="st0" d="M386,226.3c0,1.9-1.1,2.7-3.4,2.6c-11.6-6.8-24.8-10.2-38.2-10c-6.4-0.7-12.9,1.2-17.9,5.2
	c-3.1,2.8-5,6.8-5.1,10.9c0.2,4.2,2,8.1,5,11c6.7,5.8,14.1,10.5,22.2,14.1c13.5,5.7,25.6,14.4,35.2,25.5c6.6,8.8,10.1,19.6,9.9,30.6
	c0.9,15.5-5.8,30.6-17.9,40.2c-13,9.6-28.9,14.4-45.1,13.8c-15.5,0.8-30.9-2.6-44.6-9.7c-0.7-0.2-1.2-0.7-1.5-1.3
	c-0.2-0.7-0.3-1.3-0.2-2V325c0-2,0.8-2.6,2.6-1.8c13.1,8.2,28.3,12.7,43.8,13.1c6.7,0.6,13.4-1.2,19-4.9c3.8-3,6-7.5,5.9-12.3
	c-0.3-4.5-2.3-8.7-5.5-11.8c-6.4-5.9-13.7-10.8-21.6-14.3c-12.9-5.3-24.5-13.4-33.9-23.7c-15.5-20.8-13.2-49.9,5.5-67.9
	c12.2-10.8,28.2-16.3,44.4-15.2c13.4-1,26.9,1.1,39.5,5.9c0.8,0.5,1.3,1.3,1.7,2.2c0.3,0.8,0.4,1.6,0.4,2.4L386,226.3z"/>
<path id="패스_357" class="st0" d="M263,200.9c0.7,16.1-3.5,31.9-12.2,45.5c-8,11.6-19.4,20.6-32.5,25.7
	c-14.3,5.6-29.6,8.4-45,8.2c-4.6,0-8-0.1-10.2-0.2c-1.9-0.2-4.3-0.2-7.2-0.2v84.3c0.5,1.5-0.4,2.3-2.6,2.3h-33.5
	c-1.6,0.3-2.3-0.4-2.3-2.3V128.7c0-0.8,0.5-1.5,1.7-2.1c1-0.5,2.1-0.7,3.2-0.8c15.9-0.7,34.7-1,56.4-1c30.2,0,51.8,7.4,64.8,22.1
	C256.6,161.8,263.6,181.1,263,200.9z M223.9,201.7c0.9-11.8-3.6-23.4-12.3-31.5c-9.8-7.5-22-11.3-34.3-10.5
	c-8.6,0-15.6,0.3-21.1,0.8V245c2.5,0.2,5.1,0.3,7.6,0.3h10.4c12.1,0.2,24-2.8,34.5-8.7C218.8,230.7,223.8,219.1,223.9,201.7
	L223.9,201.7z"/>
<path id="패스_358" class="st1" d="M211.5,170.2c8.7,8.1,13.2,19.7,12.3,31.5c0,17.4-5.1,29-15.2,34.8
	c-10.5,5.9-22.4,8.9-34.5,8.7h-10.4c-2.4,0-5-0.1-7.6-0.3v-84.5c5.5-0.5,12.5-0.8,21-0.8C189.5,158.9,201.7,162.6,211.5,170.2z"/>
</svg>
