<svg id="레이어_1" data-name="레이어 1" xmlns="http://www.w3.org/2000/svg" viewBox="0 0 505 492.47"><path id="패스_370" data-name="패스 370" d="M419.61,10.27A89.21,89.21,0,0,1,509,99.3v314a89.21,89.21,0,0,1-89,89.42H93.43A89.21,89.21,0,0,1,4,413.73v-314A89.21,89.21,0,0,1,93,10.27h326.6ZM487.78,405.1V107.64a76.33,76.33,0,0,0-76.3-76.36H101.37A76.49,76.49,0,0,0,25,107.87V405.08a76.53,76.53,0,0,0,76.35,76.59H411.65a72.94,72.94,0,0,0,53.54-22,76,76,0,0,0,22.57-54.55Z" transform="translate(-4 -10.27)" style="fill:#df76ff"/><path id="패스_371" data-name="패스 371" d="M487.76,107.62V405.08a75.93,75.93,0,0,1-22.56,54.58,72.91,72.91,0,0,1-53.54,22H101.37A76.53,76.53,0,0,1,25,405.1V107.89A76.48,76.48,0,0,1,101.37,31.3h310a76.32,76.32,0,0,1,76.35,76.3v0ZM389.35,223.94V191.89a2.09,2.09,0,0,0-.51-1.69,3.09,3.09,0,0,0-1.79-.37,203,203,0,0,0-48.93,5.4,213.52,213.52,0,0,0-32.3,10,5.17,5.17,0,0,0-1.41.84A3.07,3.07,0,0,0,304,208q1,17.45,1,21.52V370.42c0,1.69.91,2.49,2.8,2.3h34.59c1.89,0,2.83-.76,2.83-2.3V230.54a65.88,65.88,0,0,1,18.31-3.71,197.3,197.3,0,0,1,23.44-.91,3.21,3.21,0,0,0,1.8-.38c.36-.17.51-.73.51-1.58ZM259.2,250.87a78.15,78.15,0,0,0,12.29-45.59,76.93,76.93,0,0,0-21-54.83q-21-22.29-67.4-22.31-32.82,0-56.87,1.29c-1,0-1.69.25-1.92.76a4.09,4.09,0,0,0-.38,1.79V370.52c0,1.69.91,2.49,2.79,2.3h34.1c1.68,0,2.52-.76,2.52-2.3V285.21c2.58,0,4.88.06,6.95.25s5.62.26,10.24.26a118.23,118.23,0,0,0,45.59-8.58,73.62,73.62,0,0,0,33.08-26.28Z" transform="translate(-4 -10.27)" style="fill:#1b0124"/><path id="패스_372" data-name="패스 372" d="M389.35,191.91V224a2.09,2.09,0,0,1-.51,1.69,3.18,3.18,0,0,1-1.79.38,197.3,197.3,0,0,0-23.44.91,66.23,66.23,0,0,0-18.31,3.7V370.52c0,1.54-.95,2.3-2.83,2.3H307.88c-1.89.19-2.8-.6-2.8-2.3V229.59q0-4.11-1-21.52a3,3,0,0,1,.37-1.92,5.25,5.25,0,0,1,1.42-.85,213.17,213.17,0,0,1,32.3-10,203,203,0,0,1,48.93-5.4,3.19,3.19,0,0,1,1.79.38A2,2,0,0,1,389.35,191.91Z" transform="translate(-4 -10.27)" style="fill:#df76ff"/><path id="패스_373" data-name="패스 373" d="M271.49,205.26a78.2,78.2,0,0,1-12.29,45.6,73.56,73.56,0,0,1-33,26.26,118.08,118.08,0,0,1-45.59,8.58c-4.62,0-8.05-.09-10.25-.25s-4.37-.25-6.94-.25v85.31c0,1.54-.84,2.29-2.53,2.29H126.75c-1.89.19-2.8-.59-2.8-2.29V132a4.23,4.23,0,0,1,.38-1.79c.26-.5.84-.76,1.92-.76q24.09-1.26,56.87-1.28,46.38,0,67.4,22.31A76.91,76.91,0,0,1,271.49,205.26Zm-40,.51a39.52,39.52,0,0,0-12.29-31.64,51.62,51.62,0,0,0-34.84-10.66c-8.71,0-15.72.29-21,.79v85.31c2.39.18,4.94.31,7.58.38s6.09.12,10.37.12A68.15,68.15,0,0,0,216,241.12Q231.54,232.17,231.52,205.77Z" transform="translate(-4 -10.27)" style="fill:#df76ff"/><path id="패스_374" data-name="패스 374" d="M219.24,174.13a39.52,39.52,0,0,1,12.29,31.64q0,26.39-15.49,35.35a68.13,68.13,0,0,1-34.72,8.95c-4.27,0-7.72,0-10.37-.12s-5.18-.19-7.57-.38V164.26c5.31-.51,12.31-.79,21-.79A51.67,51.67,0,0,1,219.24,174.13Z" transform="translate(-4 -10.27)" style="fill:#1b0124"/></svg>