<?xml version="1.0" encoding="utf-8"?>
<!-- Generator: Adobe Illustrator 26.0.1, SVG Export Plug-In . SVG Version: 6.00 Build 0)  -->
<svg version="1.1" id="레이어_1" xmlns="http://www.w3.org/2000/svg" xmlns:xlink="http://www.w3.org/1999/xlink" x="0px"
	 y="0px" viewBox="0 0 512 512" style="enable-background:new 0 0 512 512;" xml:space="preserve">
<style type="text/css">
	.st0{fill:#CD6799;}
</style>
<path id="패스_386" class="st0" d="M438.3,284.4c-15.9,0-31.5,3.6-45.8,10.6c-4.5-7.4-7.9-15.4-10.2-23.7
	c-1.3-6.6-1.6-13.3-0.9-19.9c1.5-7.3,3.5-14.5,6-21.5c-0.1-0.9-1.1-5.3-11.2-5.4s-18.9,1.9-19.9,4.6c-1.8,4.9-3.2,9.9-4.2,15
	c-1.8,9.2-20.3,42.2-30.9,59.4c-6.8-11.2-9.6-24.3-7.9-37.3c1.5-7.3,3.6-14.5,6-21.5c-0.1-0.9-1.1-5.2-11.2-5.4s-18.9,1.9-19.9,4.6
	s-2.1,8.9-4.2,15c-2.1,6.1-26.8,61.1-33.2,75.3c-3.3,7.3-6.2,13.1-8.2,17.1l0,0c-0.1,0.3-0.2,0.5-0.4,0.7c-1.8,3.4-2.8,5.3-2.8,5.3
	v0.2c-1.4,2.5-2.9,4.8-3.6,4.8c-1.3-5.2-1.2-10.6,0.2-15.7c3.7-19.1,12.5-48.8,12.4-49.8c0-0.5,1.7-5.7-5.7-8.4
	c-3.5-1.7-7.6-1-10.4,1.8c-0.6,0-1.1,1.6-1.1,1.6s8-33.4-15.3-33.4c-14.6,0-34.7,15.9-44.6,30.3c-6.2,3.4-19.6,10.7-34,18.5
	c-5.4,3-11.1,6.1-16.3,9c-0.4-0.4-0.7-0.8-1.1-1.2c-28.2-30.2-80.4-51.5-78.2-92c0.8-14.8,5.9-53.5,100.2-100.5
	c77.6-38.3,139.5-27.7,150.2-4.2c15.3,33.6-33.1,95.9-113.4,105c-30.6,3.4-46.7-8.4-50.7-12.8c-4.2-4.6-4.9-4.9-6.4-4
	c-2.6,1.4-0.9,5.6,0,7.9c6.2,11.2,16.7,19.4,29,22.8c14.8,4.8,50.6,7.5,94.1-9.3c48.6-18.8,86.6-71.1,75.4-114.9
	c-11.2-44.5-85-59.2-154.8-34.4c-41.5,14.8-86.5,38-118.9,68.3C7.6,182.9,1.4,214.2,4,227.3c9,46.5,73.1,76.8,98.7,99.1
	c-1.3,0.7-2.5,1.4-3.5,1.9c-12.8,6.4-61.7,31.9-73.9,58.9c-13.8,30.6,2.2,52.6,12.8,55.5c32.9,9.1,66.8-7.3,85-34.4
	s16-62.4,7.6-78.5c-0.1-0.2-0.2-0.4-0.4-0.5c3.3-1.9,6.7-4,10.1-5.9c6.6-3.9,13-7.5,18.5-10.4c-3.8,10.8-6,22.1-6.6,33.6
	c-1.4,17.3,5.7,39.8,15,48.7c3.4,2.9,7.7,4.3,12.2,4c10.9,0,15.8-9,21.2-19.7c6.6-13.1,12.6-28.3,12.6-28.3s-7.5,41.1,12.8,41.1
	c7.4,0,14.9-9.6,18.2-14.5v0.1c0,0,0.2-0.3,0.6-0.9l1.2-1.9V375c3-5.2,9.6-16.9,19.5-36.3c12.7-25.1,25-56.5,25-56.5
	c1.2,6.9,2.8,13.7,4.9,20.4c3,8.1,6.5,16,10.5,23.6c-3,4.2-4.8,6.5-4.8,6.5l0.1,0.1c-2.4,3.1-5,6.5-7.8,9.9
	c-8.5,9.4-16.5,19.3-23.7,29.7c-2.3,3.6-1.3,8.4,2.2,10.9c3.8,2,8.1,2.7,12.4,2c6.4-0.4,12.6-1.8,18.5-4.2c5.7-2,11.1-4.8,16-8.4
	c10.2-7.1,16-19,15.3-31.5c-0.6-7.7-2.5-15.2-5.8-22.2c0.9-1.3,1.8-2.6,2.7-3.9c10.3-15.3,19.5-31.3,27.7-47.8
	c1.2,6.9,2.8,13.7,4.9,20.4c2.4,7,5.4,13.8,8.9,20.3c-11.8,9.1-21.1,21.1-26.9,34.8c-5.8,16.8-1.3,24.4,7.3,26.1
	c4.7,0.3,9.3-0.6,13.5-2.8c6.1-2,11.9-5,17.1-8.8c9.9-7.3,19.4-17.4,18.8-31.2c-0.4-6.3-1.8-12.6-4.2-18.4c15.6-6.1,32.5-8,49-5.6
	c43.9,5.2,52.6,32.6,50.9,44.1c-1.6,8.3-6.7,15.5-13.9,19.7c-3,1.9-4.1,2.6-3.8,4c0.4,2,1.8,1.9,4.4,1.6c13.5-4.3,23-16.4,23.9-30.5
	C509.8,313.7,484,284.1,438.3,284.4L438.3,284.4z M99.6,398.6c-14.6,15.9-34.9,21.9-43.6,16.8c-9.4-5.4-5.7-28.9,12.2-45.6
	c10.6-9.5,22.1-18.1,34.3-25.5c2.1-1.3,5.2-3.1,9-5.4c0.6-0.4,1-0.5,1-0.5l0,0l2.2-1.4C121.2,358.6,115.4,382.2,99.6,398.6z
	 M205.7,326.4c-5.1,12.4-15.7,44-22.1,42.2c-5.6-1.5-9-25.5-1.1-49.2c4-11.4,9.8-22.1,17.2-31.6c7.9-8.9,16.7-11.8,18.8-8.2
	C221.2,284.4,208.8,318.7,205.7,326.4z M293.2,368.3c-2.1,1.1-4.2,1.8-5.1,1.3c-0.6-0.4,0.9-1.9,0.9-1.9s11-11.8,15.3-17.1
	c2.5-3.1,5.4-6.8,8.6-11v1.2C313,354.9,299.3,364.4,293.2,368.3L293.2,368.3z M360.8,352.9c-1.6-1.1-1.3-4.8,4-16.3
	c3.7-7.4,8.8-14,15-19.4c1,2.7,1.5,5.6,1.5,8.5C381.4,338.4,373,349.5,360.8,352.9L360.8,352.9z"/>
</svg>
