<svg id="레이어_1" data-name="레이어 1" xmlns="http://www.w3.org/2000/svg" viewBox="0 0 505 378.67"><path id="패스_386" data-name="패스 386" d="M438.88,284.82a104.53,104.53,0,0,0-45.75,10.61,96.26,96.26,0,0,1-10.24-23.71A63.74,63.74,0,0,1,382,251.8a176,176,0,0,1,6-21.49c-.09-.92-1.11-5.26-11.25-5.35s-18.91,1.94-19.92,4.61a110.35,110.35,0,0,0-4.24,15c-1.76,9.23-20.29,42.16-30.9,59.41a57.4,57.4,0,0,1-7.93-37.26,177.78,177.78,0,0,1,6-21.49c-.09-.92-1.1-5.25-11.25-5.35s-18.91,1.94-19.92,4.61-2.12,8.95-4.24,15-26.75,61.06-33.21,75.26c-3.32,7.29-6.18,13.1-8.21,17.07h0a4.12,4.12,0,0,1-.36.73c-1.76,3.41-2.78,5.26-2.78,5.26V358c-1.38,2.49-2.86,4.79-3.59,4.79a30.86,30.86,0,0,1,.18-15.68c3.69-19.09,12.48-48.79,12.36-49.81,0-.55,1.66-5.71-5.72-8.39a9.14,9.14,0,0,0-10.39,1.75c-.65,0-1.11,1.57-1.11,1.57s8-33.39-15.32-33.39c-14.56,0-34.66,15.94-44.64,30.34-6.24,3.41-19.65,10.7-34,18.54-5.44,3-11.09,6.08-16.33,8.95-.36-.37-.73-.84-1.11-1.2-28.22-30.17-80.41-51.48-78.21-92C42.72,208.71,47.79,170,142.15,123c77.64-38.28,139.46-27.67,150.17-4.16,15.31,33.58-33.12,95.93-113.37,105-30.62,3.41-46.67-8.39-50.73-12.81-4.24-4.61-4.88-4.89-6.45-4-2.59,1.39-.92,5.55,0,7.93a47.35,47.35,0,0,0,29,22.78c14.76,4.8,50.61,7.47,94.09-9.32,48.61-18.81,86.61-71.11,75.45-114.93C309.11,69,235.32,54.32,165.49,79.13,124,93.89,79,117.13,46.59,147.38,8.13,183.36,2,214.63,4.54,227.72c9,46.49,73.05,76.75,98.69,99.13-1.29.74-2.49,1.39-3.51,1.94C86.91,335.15,38,360.68,25.84,387.71,12,418.33,28.05,440.29,38.66,443.24c32.93,9.13,66.78-7.28,85-34.4s16-62.36,7.57-78.5a2,2,0,0,0-.37-.55c3.32-1.94,6.73-4,10.05-5.91,6.55-3.87,13-7.47,18.54-10.4a121.77,121.77,0,0,0-6.55,33.58c-1.38,17.33,5.72,39.84,15,48.7a16.63,16.63,0,0,0,12.17,4c10.89,0,15.77-9,21.22-19.74,6.64-13.1,12.63-28.32,12.63-28.32s-7.47,41.14,12.83,41.14c7.37,0,14.85-9.6,18.17-14.48v.09s.19-.28.55-.92l1.2-1.94v-.19c3-5.16,9.6-16.88,19.47-36.33,12.73-25.09,25-56.45,25-56.45A160.26,160.26,0,0,0,296,303a191.61,191.61,0,0,0,10.52,23.61c-2.95,4.16-4.8,6.46-4.8,6.46l.09.09c-2.4,3.13-5,6.54-7.84,9.87a295.86,295.86,0,0,0-23.71,29.7,8.06,8.06,0,0,0,2.22,10.88,20.05,20.05,0,0,0,12.36,2,56.68,56.68,0,0,0,18.55-4.24A62.49,62.49,0,0,0,319.34,373a35.71,35.71,0,0,0,15.31-31.46,63.4,63.4,0,0,0-5.81-22.23c.93-1.29,1.76-2.58,2.68-3.87a421.37,421.37,0,0,0,27.67-47.79A161.74,161.74,0,0,0,364.08,288,136.36,136.36,0,0,0,373,308.31a87.63,87.63,0,0,0-26.93,34.77c-5.81,16.79-1.29,24.36,7.29,26.1a25.64,25.64,0,0,0,13.46-2.77,61.21,61.21,0,0,0,17.07-8.76c9.87-7.29,19.37-17.44,18.82-31.2A58.89,58.89,0,0,0,398.49,308a96.64,96.64,0,0,1,49-5.63c43.91,5.17,52.58,32.59,50.92,44.09a29.15,29.15,0,0,1-13.93,19.74c-3,1.93-4.06,2.59-3.78,4,.36,2,1.84,1.93,4.43,1.56A34.3,34.3,0,0,0,509,341.24c1.38-27.12-24.45-56.73-70.1-56.45ZM100.19,399c-14.56,15.86-34.87,21.86-43.63,16.78-9.41-5.44-5.72-28.87,12.17-45.65A232.35,232.35,0,0,1,103,344.6c2.12-1.29,5.25-3.14,9-5.44.64-.37,1-.55,1-.55h0l2.21-1.39A63,63,0,0,1,100.19,399Zm106.06-72.13c-5.07,12.36-15.68,44-22.13,42.25-5.55-1.48-9-25.46-1.11-49.17a111.67,111.67,0,0,1,17.25-31.64c7.93-8.85,16.69-11.78,18.81-8.21,2.68,4.71-9.7,39-12.82,46.77Zm87.54,41.88c-2.12,1.11-4.16,1.84-5.08,1.29-.64-.37.93-1.85.93-1.85s11-11.78,15.31-17.15c2.49-3.14,5.44-6.83,8.58-11v1.2c0,14.12-13.65,23.61-19.74,27.49Zm67.52-15.41c-1.57-1.1-1.29-4.79,4-16.32a61.5,61.5,0,0,1,15-19.37,26.08,26.08,0,0,1,1.48,8.48A27.91,27.91,0,0,1,361.31,353.36Z" transform="translate(-4.05 -67.11)" style="fill:#cd6799"/></svg>