<svg id="레이어_1" data-name="레이어 1" xmlns="http://www.w3.org/2000/svg" viewBox="0 0 505 492.47"><path id="패스_359" data-name="패스 359" d="M419.74,10.1a89.22,89.22,0,0,1,89.43,89v314a89.23,89.23,0,0,1-89,89.43H93.59a89.22,89.22,0,0,1-89.42-89v-314a89.21,89.21,0,0,1,89-89.43H419.74Zm68.17,394.83V107.47a76.26,76.26,0,0,0-76.18-76.35H101.51a76.54,76.54,0,0,0-76.36,76.59V404.92a76.6,76.6,0,0,0,76.36,76.59H411.79a72.88,72.88,0,0,0,53.53-22,75.9,75.9,0,0,0,22.58-54.55Z" transform="translate(-4.17 -10.1)" style="fill:#ff2bc2"/><path id="패스_360" data-name="패스 360" d="M487.9,107.46V404.92a75.91,75.91,0,0,1-22.56,54.57,72.91,72.91,0,0,1-53.54,22H101.5a76.6,76.6,0,0,1-76.36-76.59V107.72A76.55,76.55,0,0,1,101.5,31.13h310a76.28,76.28,0,0,1,76.35,76.19v.17ZM412.46,349.3a8.81,8.81,0,0,0,.13-1.54c-.69-8-1-14.86-1-20.49V135.12a1.56,1.56,0,0,0-.38-1.13,2.33,2.33,0,0,0-1.68-.41H375.4a1.83,1.83,0,0,0-1.29.53,2.25,2.25,0,0,0-.5,1.54v54.58c-2.05-.18-3.84-.31-5.37-.41s-3.43-.13-5.66-.13a76.92,76.92,0,0,0-61.08,25.36,91,91,0,0,0-22.18,62q0,43,21.93,64.16a77.56,77.56,0,0,0,56.22,21.14,130.76,130.76,0,0,0,53.82-12.29c.66-.18,1.07-.43,1.16-.77ZM266.92,359.54a3.27,3.27,0,0,0-.38-2.52L207.62,243l55.62-106.58q1.26-3.07-1.29-3.08H227.86a3.49,3.49,0,0,0-2.3.65,4.9,4.9,0,0,0-1.29,1.92v.26q-5.13,11-10.5,22.53-14.37,30-27.93,60.48h-.5q-14.1-31-28.72-61.24c-3.59-7.51-7.16-15-10.75-22.28-.19-1-.51-1.68-1-2a5.27,5.27,0,0,0-2.29-.38H106.13a2,2,0,0,0-1.69.91,1.85,1.85,0,0,0,.13,2.17l55.62,110.17L102.78,357.26a2.34,2.34,0,0,0-.5,2.05c.16.69.75,1,1.79,1h34.85a4.21,4.21,0,0,0,3.83-2.29q20.5-43.07,40-86.62H183q21.3,44.86,41.24,86.34a3.93,3.93,0,0,0,1.54,2.2,5.47,5.47,0,0,0,2.83.63h36.64a1.59,1.59,0,0,0,1.69-1Z" transform="translate(-4.17 -10.1)" style="fill:#2e001e"/><path id="패스_361" data-name="패스 361" d="M412.58,347.78a8.89,8.89,0,0,1-.13,1.54c-.09.34-.5.59-1.16.78a130.77,130.77,0,0,1-53.83,12.29,77.54,77.54,0,0,1-56.21-21.14q-21.88-21.12-21.93-64.16a91,91,0,0,1,22.18-62,76.92,76.92,0,0,1,61.08-25.36c2.23,0,4.12.06,5.66.13s3.36.22,5.37.41V135.66a2.16,2.16,0,0,1,.5-1.54,1.79,1.79,0,0,1,1.29-.53h34.09a2.34,2.34,0,0,1,1.68.41,1.56,1.56,0,0,1,.38,1.13V327.3C411.54,332.91,411.89,339.76,412.58,347.78Zm-39.22-20.49.26-104a30.9,30.9,0,0,0-12.29-2Q317,224.57,317,275.28c0,19.45,4,33.4,12,41.76a39.62,39.62,0,0,0,29.73,12.54A45.87,45.87,0,0,0,373.36,327.29Z" transform="translate(-4.17 -10.1)" style="fill:#ff2bc2"/><path id="패스_362" data-name="패스 362" d="M373.62,223.26l-.26,104a45.88,45.88,0,0,1-14.61,2.3A39.64,39.64,0,0,1,329,317.06c-8-8.36-12-22.32-12-41.76q0-50.76,44.34-54.08A31.08,31.08,0,0,1,373.62,223.26Z" transform="translate(-4.17 -10.1)" style="fill:#2e001e"/><path id="패스_363" data-name="패스 363" d="M266.53,357a3.27,3.27,0,0,1,.38,2.52,1.6,1.6,0,0,1-1.68,1H228.59a5.58,5.58,0,0,1-2.83-.64,3.91,3.91,0,0,1-1.54-2.19q-20-41.47-41.24-86.35h-.25q-19.47,43.6-40,86.63a4.21,4.21,0,0,1-3.83,2.29H104.08c-1,0-1.64-.35-1.79-1a2.35,2.35,0,0,1,.5-2.05L160.2,246.55,104.58,136.38a1.86,1.86,0,0,1-.12-2.17,2,2,0,0,1,1.68-.91h36.39a5.42,5.42,0,0,1,2.29.38c.54.29.85.91,1,1.95,3.59,7.33,7.16,14.78,10.75,22.28q14.61,30.3,28.72,61.24h.5q13.57-30.5,27.94-60.48,5.35-11.49,10.49-22.53v-.25a4.76,4.76,0,0,1,1.29-1.92,3.44,3.44,0,0,1,2.3-.66h34.09c1.69,0,2.14,1,1.29,3.08L207.61,243Z" transform="translate(-4.17 -10.1)" style="fill:#ff2bc2"/></svg>