<?xml version="1.0" encoding="utf-8"?>
<!-- Generator: Adobe Illustrator 26.0.1, SVG Export Plug-In . SVG Version: 6.00 Build 0)  -->
<svg version="1.1" class="logXd" xmlns="http://www.w3.org/2000/svg" xmlns:xlink="http://www.w3.org/1999/xlink" x="0px"
	 y="0px" viewBox="0 0 512 512" style="enable-background:new 0 0 512 512;" xml:space="preserve">
<style type="text/css">
	.logXd {display:inline-block;width:1em;height:1em}
	.st0{fill:#FF2BC2;}
	.st1{fill:#2E001E;}
</style>
<path id="패스_359" class="st0" d="M419.1,9.8c49.3-0.1,89.3,39.7,89.4,89v314c0.1,49.3-39.7,89.3-89,89.4H92.9
	c-49.3,0.1-89.3-39.7-89.4-89v-314C3.4,49.9,43.2,9.9,92.5,9.8c0,0,0,0,0,0C92.5,9.8,419.1,9.8,419.1,9.8z M487.2,404.6V107.2
	c0-42.1-34.1-76.3-76.2-76.3c0,0,0,0,0,0H100.8c-42.2,0.1-76.4,34.4-76.4,76.6v297.2c0,42.2,34.2,76.5,76.4,76.6h310.3
	c20.1,0.4,39.5-7.6,53.5-22C479.2,444.8,487.4,425.1,487.2,404.6L487.2,404.6z"/>
<path id="패스_360" class="st1" d="M487.2,107.1v297.5c0.2,20.5-8,40.2-22.6,54.6c-14,14.4-33.4,22.4-53.5,22H100.8
	c-42.2-0.1-76.4-34.4-76.4-76.6V107.4c0-42.2,34.1-76.5,76.4-76.6h310c42.1,0,76.3,34.1,76.4,76.2L487.2,107.1L487.2,107.1z
	 M411.8,349c0.1-0.5,0.1-1,0.1-1.5c-0.7-8-1-14.9-1-20.5V134.8c0-0.4-0.1-0.8-0.4-1.1c-0.5-0.3-1.1-0.5-1.7-0.4h-34.1
	c-0.5,0-0.9,0.2-1.3,0.5c-0.4,0.4-0.5,1-0.5,1.5v54.6c-2-0.2-3.8-0.3-5.4-0.4s-3.4-0.1-5.7-0.1c-23.1-1.2-45.6,8.1-61.1,25.4
	c-14.9,17.2-22.8,39.3-22.2,62c0,28.7,7.3,50.1,21.9,64.2c15.1,14.3,35.4,21.9,56.2,21.1c18.6-0.2,37-4.4,53.8-12.3
	C411.3,349.6,411.7,349.3,411.8,349L411.8,349z M266.3,359.2c0.2-0.9,0.1-1.8-0.4-2.5l-58.9-114l55.6-106.6c0.8-2,0.4-3.1-1.3-3.1
	h-34.1c-0.8-0.1-1.6,0.2-2.3,0.6c-0.6,0.5-1,1.2-1.3,1.9v0.3c-3.4,7.3-6.9,14.8-10.5,22.5c-9.6,20-18.9,40.2-27.9,60.5h-0.5
	c-9.4-20.7-19-41.1-28.7-61.2c-3.6-7.5-7.2-15-10.8-22.3c-0.2-1-0.5-1.7-1-2c-0.7-0.3-1.5-0.4-2.3-0.4h-36.5c-0.7,0-1.3,0.3-1.7,0.9
	c-0.4,0.7-0.4,1.6,0.1,2.2l55.6,110.2l-57.4,110.7c-0.5,0.6-0.7,1.3-0.5,2c0.2,0.7,0.8,1,1.8,1h34.8c1.6,0,3.1-0.9,3.8-2.3
	c13.7-28.7,27-57.6,40-86.6h0.2c14.2,29.9,27.9,58.7,41.2,86.3c0.2,0.9,0.8,1.7,1.5,2.2c0.9,0.5,1.8,0.7,2.8,0.6h36.6
	C265.3,360.4,266,359.9,266.3,359.2L266.3,359.2z"/>
<path id="패스_361" class="st0" d="M411.9,347.5c0,0.5,0,1-0.1,1.5c-0.1,0.3-0.5,0.6-1.2,0.8c-16.9,7.9-35.2,12.1-53.8,12.3
	c-20.8,0.8-41.1-6.8-56.2-21.1c-14.6-14.1-21.9-35.5-21.9-64.2c-0.6-22.7,7.3-44.8,22.2-62c15.5-17.2,37.9-26.5,61.1-25.4
	c2.2,0,4.1,0.1,5.7,0.1s3.4,0.2,5.4,0.4v-54.6c0-0.6,0.1-1.1,0.5-1.5c0.3-0.3,0.8-0.5,1.3-0.5h34.1c0.6-0.1,1.2,0.1,1.7,0.4
	c0.3,0.3,0.4,0.7,0.4,1.1V327C410.9,332.6,411.2,339.4,411.9,347.5z M372.7,327l0.3-104c-3.9-1.5-8.1-2.2-12.3-2
	c-29.6,2.2-44.3,20.2-44.3,54c0,19.5,4,33.4,12,41.8c7.7,8.2,18.5,12.8,29.7,12.5C363,329.3,368,328.5,372.7,327z"/>
<path id="패스_362" class="st1" d="M373,222.9l-0.3,104c-4.7,1.6-9.6,2.3-14.6,2.3c-11.2,0.2-22.1-4.3-29.8-12.5
	c-8-8.4-12-22.3-12-41.8c0-33.8,14.8-51.9,44.3-54.1C364.9,220.7,369,221.4,373,222.9z"/>
<path id="패스_363" class="st0" d="M265.9,356.7c0.5,0.8,0.6,1.7,0.4,2.5c-0.3,0.7-1,1.1-1.7,1h-36.6c-1,0-2-0.2-2.8-0.6
	c-0.8-0.5-1.3-1.3-1.5-2.2c-13.3-27.6-27.1-56.4-41.2-86.4h-0.2c-13,29.1-26.3,57.9-40,86.6c-0.7,1.4-2.2,2.3-3.8,2.3h-34.8
	c-1,0-1.6-0.4-1.8-1c-0.2-0.7,0-1.5,0.5-2l57.4-110.7l-55.6-110.2c-0.5-0.6-0.6-1.5-0.1-2.2c0.4-0.6,1-0.9,1.7-0.9h36.4
	c0.8,0,1.6,0.1,2.3,0.4c0.5,0.3,0.9,0.9,1,1.9c3.6,7.3,7.2,14.8,10.8,22.3c9.7,20.2,19.3,40.6,28.7,61.2h0.5
	c9-20.3,18.4-40.5,27.9-60.5c3.6-7.7,7.1-15.2,10.5-22.5v-0.2c0.3-0.7,0.7-1.4,1.3-1.9c0.7-0.5,1.5-0.7,2.3-0.7h34.1
	c1.7,0,2.1,1,1.3,3.1l-55.6,106.6L265.9,356.7z"/>
</svg>
