<?xml version="1.0" encoding="utf-8"?>
<!-- Generator: Adobe Illustrator 26.0.1, SVG Export Plug-In . SVG Version: 6.00 Build 0)  -->
<svg version="1.1" id="레이어_1" xmlns="http://www.w3.org/2000/svg" xmlns:xlink="http://www.w3.org/1999/xlink" x="0px"
	 y="0px" viewBox="0 0 370 512" style="enable-background:new 0 0 370 512;" xml:space="preserve">
<style type="text/css">
	.st0{fill:#004798;}
	.st1{fill:#1E8ACE;}
	.st2{fill:#1A1311;}
	.st3{fill:#FFFFFF;}
	.st4{fill:url(#패스_330_00000119114829164188018290000010502256790267019196_);}
	.st5{fill:url(#패스_331_00000104700447590123483880000017090916750857509249_);}
	.st6{fill:url(#패스_332_00000093163626351010653060000014828006620714581693_);}
	.st7{fill:url(#패스_335_00000137837872927602844630000006533980691405356166_);}
	.st8{opacity:5.000000e-02;fill:#1A1311;enable-background:new    ;}
</style>
<path id="패스_324" class="st0" d="M331.4,469.1L185,508.5L38.5,469.1L4.8,102.9h360.5L331.4,469.1z"/>
<path id="패스_325" class="st1" d="M185,132.6v344.5l0.3,0.1l118.5-31.9l27.4-312.6H185z"/>
<path id="패스_326" class="st2" d="M101.9,49.2V27.4h31.8V3.5H78v67.4h55.6V49.2H101.9z"/>
<path id="패스_327" class="st2" d="M190.9,27.4h22.2V3.5h-55.6v23.9c7.4,7.4,11.3,11,22.1,21.8h-22.1v21.7h55.7V49.2L190.9,27.4z"
	/>
<path id="패스_328" class="st2" d="M269.7,27.4H292V3.5h-55.6v23.9c7.4,7.4,11.3,11,22.1,21.8h-22.1v21.7H292V49.2L269.7,27.4z"/>
<path id="패스_329" class="st3" d="M184.9,224.1L80.1,267.8l3.5,43.2l101.3-43.4l107.8-46.1l4.5-44.2L184.9,224.1z"/>
<linearGradient id="패스_330_00000036964319529834130810000001062417807564362652_" gradientUnits="userSpaceOnUse" x1="-1475.7438" y1="47.1108" x2="-1475.7438" y2="40.3788" gradientTransform="matrix(15.57 0 0 12.91 23109.7891 -299.4945)">
	<stop  offset="0.39" style="stop-color:#D4D5D5;stop-opacity:0"/>
	<stop  offset="1" style="stop-color:#D4D5D5"/>
</linearGradient>
<path id="패스_330" style="fill:url(#패스_330_00000036964319529834130810000001062417807564362652_);" d="M80.1,267.8l3.5,43.2
	l101.3-43.4v-43.6L80.1,267.8z"/>
<linearGradient id="패스_331_00000129897579589580331230000004205470079308183972_" gradientUnits="userSpaceOnUse" x1="-1475.2543" y1="42.612" x2="-1475.2543" y2="35.8789" gradientTransform="matrix(16.67 0 0 13.41 24833.5195 -303.0052)">
	<stop  offset="0.39" style="stop-color:#D4D5D5;stop-opacity:0"/>
	<stop  offset="1" style="stop-color:#D4D5D5"/>
</linearGradient>
<path id="패스_331" style="fill:url(#패스_331_00000129897579589580331230000004205470079308183972_);" d="M297.2,177.4
	l-112.3,46.8v43.5l107.8-46.1L297.2,177.4z"/>
<linearGradient id="패스_332_00000017493811337497761450000002347105373791511182_" gradientUnits="userSpaceOnUse" x1="-1513.0879" y1="26.0963" x2="-1506.3538" y2="26.0963" gradientTransform="matrix(30.99 0 0 24.35 46969.8984 -285.6756)">
	<stop  offset="0" style="stop-color:#EAEAE8"/>
	<stop  offset="1" style="stop-color:#FFFFFF"/>
</linearGradient>
<path id="패스_332" style="fill:url(#패스_332_00000017493811337497761450000002347105373791511182_);" d="M80.2,267.8l3.5,43.2
	l155.5,0.5l-3.5,57.6l-51.2,14.4l-49.2-12.4l-3-35.8H86.7l6,69.1l92.4,27.3l91.9-26.8l11.9-137.1L80.2,267.8z"/>
<linearGradient id="패스_335_00000004542237559008169650000001778231388674656946_" gradientUnits="userSpaceOnUse" x1="-1516.0249" y1="77.6104" x2="-1509.2921" y2="77.6104" gradientTransform="matrix(33.65 0 0 6.57 51084.1523 -310.4152)">
	<stop  offset="0" style="stop-color:#EAEAE8"/>
	<stop  offset="1" style="stop-color:#FFFFFF"/>
</linearGradient>
<path id="패스_335" style="fill:url(#패스_335_00000004542237559008169650000001778231388674656946_);" d="M70.6,177.4h226.6
	l-4.5,44.2H76.1L70.6,177.4z"/>
<path id="패스_336" class="st8" d="M184.9,177.4H70.6l5.5,44.2h108.8V177.4z"/>
</svg>
