<svg id="레이어_1" data-name="레이어 1" xmlns="http://www.w3.org/2000/svg" viewBox="0 0 505 210.88"><path id="패스_350" data-name="패스 350" d="M306.92,222.59c-11.08,0-19.32,5.44-19.32,18.52,0,9.86,5.43,16.7,18.72,16.7a17,17,0,0,0,18.81-15,18.65,18.65,0,0,0-14.58-20.25,17,17,0,0,0-3.63,0ZM284.75,315a17.9,17.9,0,0,0-5.23,10.67c0,8,10.26,10.47,24.35,10.47,11.7,0,27.57-.82,27.57-11.7,0-6.45-7.64-6.86-17.31-7.46l-29.38-2Zm59.57-91.76a32,32,0,0,1,7.45,20.33c0,22.33-17.52,35.41-42.86,35.41A63.64,63.64,0,0,1,293,277.13l-6.64,10.67L306.07,289c34.82,2.22,55.34,3.23,55.34,30,0,23.15-20.32,36.22-55.34,36.22-36.43,0-50.32-9.24-50.32-25.16,0-9.06,4-13.88,11.09-20.53A13.4,13.4,0,0,1,258,296.28,18.06,18.06,0,0,1,263.82,284c3.62-3.82,7.64-7.65,12.48-12.08A32.12,32.12,0,0,1,259,241.75c0-23.15,15.3-39,46.08-39a68.74,68.74,0,0,1,18.52,2h39.25v17.1l-18.52,1.41" transform="translate(-4.27 -150.89)" style="fill:#362701"/><path id="패스_351" data-name="패스 351" d="M398.29,186.65a16.52,16.52,0,0,1-18.11-14.77,17,17,0,0,1,0-3.35,18.22,18.22,0,0,1,36.43,0,16.59,16.59,0,0,1-14.88,18.14A15.83,15.83,0,0,1,398.29,186.65Zm-26,121V291.71l10.27-1.4c2.82-.41,3.22-1,3.22-4V227.1c0-2.21-.62-3.62-2.62-4.22l-10.86-3.83,2.21-16.29h41.66v83.51c0,3.23.2,3.63,3.22,4l10.27,1.4V307.6H372.33" transform="translate(-4.27 -150.89)" style="fill:#362701"/><path id="패스_352" data-name="패스 352" d="M509.27,299.8a80.48,80.48,0,0,1-32.81,8.05c-23.95,0-33-9.65-33-32.4V222.72c0-1.23,0-2-1.62-2H427.76V202.8c17.71-2,24.75-10.87,27-32.81h19.09v28.59c0,1.4,0,2,1.62,2H503.8v20.12h-30v48.1c0,11.87,2.83,16.5,13.69,16.5a47.62,47.62,0,0,0,16.3-3.22l5.44,17.72" transform="translate(-4.27 -150.89)" style="fill:#362701"/><path id="패스_353" data-name="패스 353" d="M211.08,247l-92-92a13.55,13.55,0,0,0-19.16,0l0,0L80.77,174.06,105,198.3a16.12,16.12,0,0,1,20.41,20.55l23.36,23.37a16.13,16.13,0,1,1-9.67,9.1l-21.79-21.79v57.33A16.14,16.14,0,1,1,104,286.4V228.51a16.17,16.17,0,0,1-8.77-21.18l-23.89-23.9L8.26,246.56a13.55,13.55,0,0,0,0,19.16l0,0,92,92a13.55,13.55,0,0,0,19.16,0l0,0,91.59-91.59a13.58,13.58,0,0,0,0-19.2" transform="translate(-4.27 -150.89)" style="fill:#f03c2e"/></svg>