<svg id="레이어_1" data-name="레이어 1" xmlns="http://www.w3.org/2000/svg" viewBox="0 0 505 505"><rect id="사각형_534" data-name="사각형 534" width="505" height="505" style="fill:#f7df1e"/><path id="패스_337" data-name="패스 337" d="M343.4,398.37c10.18,16.61,23.41,28.82,46.81,28.82,19.67,0,32.23-9.83,32.23-23.4,0-16.27-12.9-22-34.51-31.51l-11.86-5c-34.25-14.58-57-32.82-57-71.54,0-35.59,27.11-62.69,69.49-62.69,30.18,0,51.87,10.51,67.5,38l-36.95,23.72c-8.14-14.58-16.92-20.33-30.55-20.33A20.64,20.64,0,0,0,366,292.85c-.06.62-.1,1.25-.1,1.87,0,14.23,8.82,20,29.18,28.82l11.87,5C447.21,345.88,470,363.51,470,403.14c0,42.72-33.57,66.13-78.64,66.13-44.07,0-72.54-21-86.47-48.53Zm-167.63,4.12c7.45,13.22,14.23,24.41,30.54,24.41,15.59,0,25.43-6.1,25.43-29.82V235.71h47.45v162c0,49.13-28.81,71.54-70.86,71.54a73.67,73.67,0,0,1-71.19-43.35Z" transform="translate(-4.17 -3.83)"/></svg>