<svg id="레이어_1" data-name="레이어 1" xmlns="http://www.w3.org/2000/svg" viewBox="0 0 505 492.47"><path id="패스_354" data-name="패스 354" d="M509.17,99.53V413.14a89.23,89.23,0,0,1-89,89.43H93.55A89.22,89.22,0,0,1,4.17,413.52v-314a89.22,89.22,0,0,1,89-89.43H419.71a89.21,89.21,0,0,1,89.42,89v.42ZM487.9,404.94V107.47a76.27,76.27,0,0,0-76.19-76.35H101.54a76.5,76.5,0,0,0-76.36,76.59V404.92a76.55,76.55,0,0,0,76.36,76.59H411.79a73,73,0,0,0,53.58-22,76,76,0,0,0,22.53-54.54Z" transform="translate(-4.17 -10.1)" style="fill:#37c5ff"/><path id="패스_355" data-name="패스 355" d="M487.9,107.46V404.92a76.07,76.07,0,0,1-22.53,54.58,73.07,73.07,0,0,1-53.6,22H101.55a76.56,76.56,0,0,1-76.36-76.6V107.73a76.5,76.5,0,0,1,76.36-76.6h310a76.29,76.29,0,0,1,76.36,76.19v.14ZM394.39,316.54a49.81,49.81,0,0,0-9.87-30.64,95.64,95.64,0,0,0-35.22-25.49,89,89,0,0,1-22.19-14.1,16.25,16.25,0,0,1-5-11,15.69,15.69,0,0,1,5.16-10.95,24.52,24.52,0,0,1,17.91-5.25,72.77,72.77,0,0,1,38.17,10c2.23.16,3.37-.69,3.37-2.57v-29.7a7.56,7.56,0,0,0-.38-2.45,4.92,4.92,0,0,0-1.68-2.17,91.94,91.94,0,0,0-39.47-5.89,61.3,61.3,0,0,0-44.43,15.24,51.47,51.47,0,0,0-5.53,67.9,94.6,94.6,0,0,0,33.85,23.73,79.19,79.19,0,0,1,21.64,14.3,18.36,18.36,0,0,1,5.5,11.79,15.35,15.35,0,0,1-5.89,12.31,29.7,29.7,0,0,1-18.95,4.87,86.22,86.22,0,0,1-43.77-13.07c-1.72-.84-2.57-.25-2.57,1.8v32.27a7,7,0,0,0,.25,2,2.45,2.45,0,0,0,1.54,1.29,86.32,86.32,0,0,0,44.61,9.74,71.76,71.76,0,0,0,45.09-13.83,47.72,47.72,0,0,0,17.86-40.16ZM251.55,246.68a87.55,87.55,0,0,0-7.29-99.55q-19.51-22-64.81-22.06-32.56,0-56.39,1a7.64,7.64,0,0,0-3.21.76q-1.68.8-1.68,2.07V364.38c0,1.88.76,2.66,2.3,2.32h33.58c2.23,0,3.08-.78,2.58-2.32V280.16c2.88,0,5.27.06,7.16.25,2.23.16,5.62.25,10.24.25a119.37,119.37,0,0,0,45-8.19,71,71,0,0,0,32.56-25.74Z" transform="translate(-4.17 -10.1)" style="fill:#28253a"/><path id="패스_356" data-name="패스 356" d="M386.69,226.59c0,1.88-1.11,2.73-3.37,2.57a72.78,72.78,0,0,0-38.18-10,24.53,24.53,0,0,0-17.91,5.25,15.65,15.65,0,0,0-5.15,10.94,16.25,16.25,0,0,0,5,11,88.84,88.84,0,0,0,22.19,14.1A95.64,95.64,0,0,1,384.49,286a49.73,49.73,0,0,1,9.86,30.63,47.68,47.68,0,0,1-17.94,40.23,71.76,71.76,0,0,1-45.09,13.83,86.42,86.42,0,0,1-44.61-9.74,2.47,2.47,0,0,1-1.54-1.29,7,7,0,0,1-.25-2V325.31c0-2.05.84-2.65,2.58-1.8a86.22,86.22,0,0,0,43.76,13.07,29.7,29.7,0,0,0,18.95-4.87,15.35,15.35,0,0,0,5.89-12.31,18.31,18.31,0,0,0-5.5-11.79A79.19,79.19,0,0,0,329,293.31a94.6,94.6,0,0,1-33.85-23.73,51.47,51.47,0,0,1,5.53-67.9,61.31,61.31,0,0,1,44.44-15.24,91.89,91.89,0,0,1,39.46,5.89,4.85,4.85,0,0,1,1.68,2.17,7.56,7.56,0,0,1,.38,2.45Z" transform="translate(-4.17 -10.1)" style="fill:#37c5ff"/><path id="패스_357" data-name="패스 357" d="M263.7,201.23a78.24,78.24,0,0,1-12.16,45.51A70.92,70.92,0,0,1,219,272.47a119.42,119.42,0,0,1-45,8.19c-4.62,0-8-.09-10.24-.25-1.88-.18-4.28-.25-7.16-.25v84.27c.5,1.54-.35,2.32-2.58,2.32H120.49c-1.55.34-2.3-.44-2.3-2.32V129c0-.84.53-1.54,1.68-2.07a7.59,7.59,0,0,1,3.21-.75q23.8-1,56.39-1,45.35,0,64.81,22.06A78.68,78.68,0,0,1,263.7,201.23Zm-39.18.79a39.15,39.15,0,0,0-12.31-31.51A51.15,51.15,0,0,0,177.9,160c-8.55,0-15.56.28-21.05.78v84.55c2.53.16,5.05.26,7.58.26h10.41a68.63,68.63,0,0,0,34.51-8.71Q224.5,228.15,224.5,202Z" transform="translate(-4.17 -10.1)" style="fill:#37c5ff"/><path id="패스_358" data-name="패스 358" d="M212.2,170.51A39.16,39.16,0,0,1,224.52,202q0,26.08-15.25,34.84a68.6,68.6,0,0,1-34.51,8.71h-10.4c-2.45,0-5-.1-7.57-.26V160.76c5.47-.51,12.47-.78,21-.78A51.2,51.2,0,0,1,212.2,170.51Z" transform="translate(-4.17 -10.1)" style="fill:#28253a"/></svg>