<svg id="레이어_1" data-name="레이어 1" xmlns="http://www.w3.org/2000/svg" viewBox="0 0 158.34 24.37"><path d="M43.16,2A1.31,1.31,0,0,0,41.74.67H26.47V2.22h13V5.74a10.78,10.78,0,0,1-.51,3.72H23.67V11h8.89v3H26.13v1.55H39.35v8h2.14c1,0,1.56-.4,1.56-1.67V15.3A1.25,1.25,0,0,0,41.76,14h-5.5V11h9.45V9.46H42.1a7.42,7.42,0,0,0,1.06-3.83Z" style="fill:#002d74"/><path d="M9.05,15.46H4.82a3.59,3.59,0,0,1,.49,2V21.7c0,1.42.5,1.83,1.94,1.83H20.36V22H9.05Z" style="fill:#002d74"/><path d="M103.6,1.68H94.76a3.57,3.57,0,0,1,.49,2v10c0,1.43.49,1.82,1.94,1.82h8.34V3.5C105.53,2.08,105,1.68,103.6,1.68Zm-5,12.24V3.22h3.52v10.7Z" style="fill:#002d74"/><path d="M13.64,2h-5V0H4.58A2.71,2.71,0,0,1,5,1.6V2H0V3.56H3.25A5.6,5.6,0,0,0,.81,8.18a5.77,5.77,0,0,0,6,5.69,5.77,5.77,0,0,0,6-5.69,5.58,5.58,0,0,0-2.44-4.62h3.3ZM6.79,12.31C5.15,12.31,4.06,10.63,4,8.2S5.15,4.09,6.79,4.09,9.54,5.77,9.56,8.2,8.43,12.31,6.79,12.31Z" style="fill:#002d74"/><path d="M19.51.51H15.29a3,3,0,0,1,.52,2V16.83H18c1.05,0,1.56-.47,1.56-1.65V7.56h3.66V6H19.51Z" style="fill:#002d74"/><path d="M147,15.46H142.8a3.59,3.59,0,0,1,.49,2V21.7c0,1.42.49,1.83,1.93,1.83h13.12V22H147Z" style="fill:#002d74"/><path d="M157.49.51h-4.23a2.89,2.89,0,0,1,.52,2V16.83h2.14c1.06,0,1.57-.47,1.57-1.65Z" style="fill:#002d74"/><path d="M87.25.54a2.58,2.58,0,0,1,.73,2v21H89.7c1.18,0,1.64-.77,1.64-2V.54Z" style="fill:#002d74"/><path d="M83,7.83H79.34V9.37H83V21.42h1.61c1.17,0,1.72-.69,1.72-2.09V.54h-4a2.7,2.7,0,0,1,.66,2Z" style="fill:#002d74"/><path d="M111.3.54a2.58,2.58,0,0,1,.73,2V7.83h-1.69V.54h-4a2.7,2.7,0,0,1,.66,2V21.42h1.61c1.17,0,1.72-.69,1.72-2.09v-10H112V23.53h1.72c1.17,0,1.64-.77,1.64-2V.54Z" style="fill:#002d74"/><path d="M132,.54a2.58,2.58,0,0,1,.73,2V7.83h-3.29V9.37h3.29V23.53h1.72c1.18,0,1.65-.77,1.65-2V.54Z" style="fill:#002d74"/><path d="M59.27,2.91A1.22,1.22,0,0,0,58,1.45H48.16V3h7.36c0,5.48-3.22,8.94-8.61,9.87l.67,1c7-.85,11.18-4.14,11.69-11" style="fill:#002d74"/><path d="M129.7,2.91a1.22,1.22,0,0,0-1.23-1.46h-9.88V3H126c0,6.29-2.19,10.78-8.61,13.43l.67,1c7.36-1.73,11.69-7,11.69-14.56" style="fill:#002d74"/><path d="M66.89.54H62.63a2.83,2.83,0,0,1,.66,2V4.24H59.42V5.78h3.87V8h-4V9.57h4v3.54a7.47,7.47,0,0,0-3.11-.66c-3.61,0-6.64,2.43-6.69,6s3.08,6,6.69,6,6.65-2.42,6.71-6a1.21,1.21,0,0,1,0-.19h0ZM60.17,22.76c-1.94,0-3.24-1.78-3.26-4.33s1.32-4.33,3.26-4.33,3.28,1.78,3.3,4.33S62.13,22.76,60.17,22.76Z" style="fill:#002d74"/><path d="M80.4,2.8a1.23,1.23,0,0,0-1.34-1.35h-8.7V3h6.41c0,4.75-3.24,7.75-8,9.51a17.25,17.25,0,0,1,11.77,7.37V15.17A15.07,15.07,0,0,0,73.59,12c3.64-1.4,6.81-6,6.81-9.24" style="fill:#002d74"/><path d="M151,2.8a1.23,1.23,0,0,0-1.34-1.35h-9.22V3h6.93c0,2.78-3.77,6.58-8.53,7.73,5.34.52,10.06,2.95,12.64,6.12V12.67a17.3,17.3,0,0,0-7.64-2.59C147.52,8.88,151,6,151,2.8" style="fill:#002d74"/></svg>