<?xml version="1.0" encoding="utf-8"?>
<!-- Generator: Adobe Illustrator 26.0.2, SVG Export Plug-In . SVG Version: 6.00 Build 0)  -->
<svg version="1.1" id="Layer_1" xmlns="http://www.w3.org/2000/svg" xmlns:xlink="http://www.w3.org/1999/xlink" x="0px" y="0px"
	 viewBox="0 0 566.9 142.1" style="enable-background:new 0 0 566.9 142.1;" xml:space="preserve">
<style type="text/css">
	.st0{fill:#000E5C;}
	.st1{fill:#FFFFFF;}
	.st2{fill:url(#SVGID_1_);}
	.st3{fill:url(#SVGID_00000161613153880849848200000001542492209987387577_);}
	.st4{fill:url(#SVGID_00000060015713072649233490000011613097435617228709_);}
	.st5{fill:url(#SVGID_00000060717710357456028790000012741536425849780380_);}
	.st6{fill:url(#SVGID_00000093168899154664372150000005367109939405386159_);}
	.st7{fill:url(#SVGID_00000069387317524418227850000011529832186845082534_);}
	.st8{fill:url(#SVGID_00000054948080938443335050000005042250506295027084_);}
</style>
<g>
	<path class="st0" d="M384.8,20.7c0.4,3,2.4,8.4,7,8.4c3.1,0,4.7-2.4,4.7-5c0-2.2-1.1-4-3.4-5.9l-1.3-1c-2.7-2.2-5.2-4.8-5.2-8.6
		c0-5.4,4.2-8.7,9.5-8.7c1.7,0,3.3,0.3,4.9,0.9c0.8,0.3,1.4,0.6,1.8,0.7c-0.2,1.8-0.2,4.1-0.3,7l-1.5,0.1c-0.4-2.8-1.4-6.9-5.2-6.9
		c-2.9,0-4.2,2.5-4.2,4.7c0,2.2,1.2,3.7,3.5,5.4l1.4,1c3,2.2,5.5,4.7,5.5,8.8c0,5.7-4.8,9.2-10.6,9.2c-3.6,0-6.7-1.5-7.9-2.8
		c0-1,0.1-3.6-0.1-7.3L384.8,20.7z"/>
	<path class="st0" d="M414.6,25.8c-3.1,3.5-6.3,5-7.6,5c-1.3,0-2.3-0.9-1.3-4.9l2.2-10.2c0.3-1.2,0.3-1.6,0-1.6
		c-0.4,0-1.6,0.8-2.6,1.5l-0.7-1.2c3.2-3.1,6.3-4.9,7.9-4.9c1.3,0,1.5,1.8,0.9,4.5l-2.5,10.5c-0.3,1.4-0.2,1.8,0.1,1.8
		c0.4,0,1.5-0.6,2.8-1.8L414.6,25.8z M415.2,3.3c0,1.8-1.4,3.5-3.3,3.5c-1.6,0-2.5-1-2.4-2.8c0-1.5,1.1-3.5,3.2-3.5
		C414.4,0.6,415.2,1.8,415.2,3.3z"/>
	<path class="st0" d="M437.9,25.9c-3.2,3.6-5.8,4.9-7.4,4.9c-1.2,0-2.1-0.9-1.3-4.9c0.7-3.1,1.4-6.3,2.2-9.4
		c0.5-2.3,0.2-2.8-0.3-2.8c-1.3,0-5.3,4.7-6.8,7.5c-0.6,2.5-1.3,5.7-1.9,8.6c-1.6,0.1-3.6,0.6-4.9,1l-0.3-0.4
		c1.1-4.6,2.2-9.5,3.3-14.8c0.3-1.4,0.3-1.8,0-1.8c-0.4,0-1.9,0.9-2.8,1.8l-0.6-1.4c2.9-3.1,5.7-4.7,7.4-4.7c1.2,0,1.8,1.4,0.9,5.7
		l-0.4,2.3h0.1c2-3,4.4-5.2,6.3-6.6c1.2-0.9,2.5-1.5,3.6-1.5c1.5,0,2.9,0.9,1.5,7c-0.6,2.7-1.2,5.4-1.8,8.2
		c-0.3,1.1-0.2,1.7,0.2,1.7c0.3,0,1.7-0.9,2.6-1.9L437.9,25.9z"/>
	<path class="st0" d="M455,25.6c-3,3.5-6.3,5.3-9.1,5.3c-3.4,0-5.3-2.4-5.3-6.9c0-3.8,1.5-8.1,4.7-11c1.9-1.8,5-3.4,7.5-3.4
		c2.1,0,3.9,1.1,3.9,2.7c0,0.9-0.5,2-1.9,2.8c-0.4,0.3-0.9,0.3-1.2-0.3c-1.2-1.9-2.4-2.8-3.5-2.8c-0.8,0-1.5,0.6-2.2,2.1
		c-0.9,1.9-1.6,5.1-1.6,8.4c0,3.3,1.1,4.6,2.7,4.6c1.8,0,4.3-2,5.3-2.9L455,25.6z"/>
	<path class="st0" d="M473.1,25.1c-3.9,4.3-7.2,5.7-10.2,5.7c-2.5,0-5.3-1.5-5.3-6.9c0-4.2,1.8-8.8,5.1-11.4
		c1.7-1.5,4.7-2.9,7.1-2.9c3,0,4.5,1.9,4.5,4c0,4.6-6.8,6.9-11.1,8.1c0,0.5,0,0.9,0,1.2c0,2.3,0.8,4.3,3,4.3c1.7,0,4.2-1.3,6.3-3.3
		L473.1,25.1z M466.5,12.2c-1,0.7-2.8,3.2-3.3,7.8c4.7-1.5,6.2-3.4,6.2-5.8c0-1.8-1.1-2.4-1.7-2.4C467.4,11.7,466.9,11.9,466.5,12.2
		z"/>
	<path class="st0" d="M494.4,24.3c-0.7,3.7-0.6,4.1,3.3,4.5l-0.3,1.5h-13.2l0.3-1.5c3.5-0.4,3.8-0.8,4.5-4.5l2.9-15.6
		c0.5-2.9,0.2-3.3-2.1-3.4l-1.3-0.1l0.4-1.4c2.8-0.4,6.4-1.2,9.8-2.4L494.4,24.3z"/>
	<path class="st0" d="M522.9,11.5c0,7.7-4.8,15.1-12.7,18.2c-1.9,0.7-5.2,1.4-7,1.4l-0.3-1.5c5.6-1.3,11.1-5.7,13.2-12.1l-2.3,1.1
		c-1,0.5-1.8,0.7-2.3,0.7c-3.9,0-7.2-2.6-7.2-7.6c0-5.5,4.6-10.4,10.4-10.4C520,1.3,522.9,5.3,522.9,11.5z M509.9,10.4
		c0,3.5,1.5,6,4.4,6c0.8,0,1.6-0.4,2.2-0.7c0.5-1.2,0.8-3.4,0.8-6.2c0-2.6-0.7-6.3-3.3-6.3C511.6,3.2,509.9,7.1,509.9,10.4z"/>
	<path class="st0" d="M546.9,2.8c-1.5,0.2-3.3,0.9-4.8,1.5c-2.3,1.1-6.6,3.6-9,9.4l0,0.1l2.2-1.1c0.8-0.3,1.6-0.7,2.5-0.7
		c4.1,0,7.2,2.8,7.2,8c0,5.6-4.5,10.8-10.7,10.8c-5.2,0-8.4-4.1-8.4-9.8c0-7.6,4.6-15.4,14.3-18.6c2.1-0.7,4.8-1.2,6.4-1.4
		L546.9,2.8z M532.4,15.6c-0.5,1.6-1,3.6-1,6.5c0,3.2,1.2,6.9,3.7,6.9c3,0,4.2-4.7,4.2-7.8c0-4-1.6-6.2-4.5-6.2
		C533.8,15,533.2,15.3,532.4,15.6z"/>
	<path class="st0" d="M566.9,11.5c0,7.7-4.8,15.1-12.7,18.2c-1.9,0.7-5.2,1.4-7,1.4l-0.3-1.5c5.6-1.3,11.1-5.7,13.1-12.1l-2.3,1.1
		c-1,0.5-1.8,0.7-2.3,0.7c-3.9,0-7.2-2.6-7.2-7.6c0-5.5,4.7-10.4,10.4-10.4C564,1.3,566.9,5.3,566.9,11.5z M553.9,10.4
		c0,3.5,1.5,6,4.4,6c0.7,0,1.6-0.4,2.2-0.7c0.5-1.2,0.9-3.4,0.9-6.2c0-2.6-0.7-6.3-3.4-6.3C555.5,3.2,553.9,7.1,553.9,10.4z"/>
	
		<rect x="15.6" y="51.1" transform="matrix(0.7071 -0.7071 0.7071 0.7071 -47.1871 63.672)" class="st1" width="75.3" height="75.3"/>
	
		<linearGradient id="SVGID_1_" gradientUnits="userSpaceOnUse" x1="-11.5796" y1="497.2233" x2="-9.2323" y2="497.2233" gradientTransform="matrix(-22.6979 -22.6979 -21.854 21.854 10692.1094 -11022.3701)">
		<stop  offset="0" style="stop-color:#0052A2"/>
		<stop  offset="0.35" style="stop-color:#0069BC"/>
		<stop  offset="1" style="stop-color:#62BBEC"/>
	</linearGradient>
	<path class="st2" d="M94.3,76.6L94,76.2l-7.4-7.4c-10.2,6.6-22.8,10.3-35.9,10.3c-11.7,0-22.1-4-31.6-9.4l-1.7,1.7
		c10.7,8.1,26,14.3,42.9,14.3C74.3,85.7,84.2,82.5,94.3,76.6z"/>
	
		<linearGradient id="SVGID_00000054239157705532761310000018128004579653724824_" gradientUnits="userSpaceOnUse" x1="-11.5798" y1="496.8676" x2="-9.2324" y2="496.8676" gradientTransform="matrix(-22.6821 -22.6821 -21.8388 21.8388 10690.1523 -11020.1611)">
		<stop  offset="0" style="stop-color:#0052A2"/>
		<stop  offset="0.35" style="stop-color:#0069BC"/>
		<stop  offset="1" style="stop-color:#62BBEC"/>
	</linearGradient>
	<path style="fill:url(#SVGID_00000054239157705532761310000018128004579653724824_);" d="M53.3,35.5l-9.4,9.4c2.5,1.3,6.2,2,9.3,2
		c3.1,0,7.1-0.4,9.8-1.7L53.3,35.5z"/>
	
		<linearGradient id="SVGID_00000164511701781668895680000007048744538718276261_" gradientUnits="userSpaceOnUse" x1="-11.5815" y1="496.9668" x2="-9.2386" y2="496.9668" gradientTransform="matrix(-22.7002 -22.7002 -21.8562 21.8562 10697.2578 -11027.8682)">
		<stop  offset="0" style="stop-color:#0052A2"/>
		<stop  offset="0.35" style="stop-color:#0069BC"/>
		<stop  offset="1" style="stop-color:#62BBEC"/>
	</linearGradient>
	<path style="fill:url(#SVGID_00000164511701781668895680000007048744538718276261_);" d="M70.1,52.4l-3.7-3.7l-2.8-2.8
		c-5.3,3.4-11.1,5.3-18.2,5.3c-2.2,0-4.8-0.4-6.9-0.9L37,51.8c4.7,2.1,11.9,3.9,17.7,3.9C59.9,55.7,65.7,54.7,70.1,52.4z"/>
	
		<linearGradient id="SVGID_00000106834575082003079330000000959709458331280824_" gradientUnits="userSpaceOnUse" x1="-11.6079" y1="497.134" x2="-9.261" y2="497.134" gradientTransform="matrix(-22.6981 -22.6981 -21.8541 21.8541 10693.1631 -11024.7744)">
		<stop  offset="0" style="stop-color:#0052A2"/>
		<stop  offset="0.35" style="stop-color:#0069BC"/>
		<stop  offset="1" style="stop-color:#62BBEC"/>
	</linearGradient>
	<path style="fill:url(#SVGID_00000106834575082003079330000000959709458331280824_);" d="M85.7,68l-1.2-1.3l-6.1-6.1
		c-12.2,6.4-17.3,8.1-28.1,8.1c-8.4,0-17-2.7-24.1-6.1l-1.6,1.6c9.2,6.1,22,10.8,33.7,10.8C68.6,75,77.1,72.2,85.7,68z"/>
	
		<linearGradient id="SVGID_00000074414816117333426870000016171321930388008377_" gradientUnits="userSpaceOnUse" x1="-11.6065" y1="497.3123" x2="-9.2608" y2="497.3123" gradientTransform="matrix(-22.6988 -22.6988 -21.8548 21.8548 10690.1631 -11021.7793)">
		<stop  offset="0" style="stop-color:#0052A2"/>
		<stop  offset="0.35" style="stop-color:#0069BC"/>
		<stop  offset="1" style="stop-color:#62BBEC"/>
	</linearGradient>
	<path style="fill:url(#SVGID_00000074414816117333426870000016171321930388008377_);" d="M103.4,85.7L95,77.3
		C82.8,85.6,67.7,90,51.9,90c-15.1,0-28.5-5.1-40.3-12.8l-1.4,1.4C23,89.2,39.1,97.1,61.4,97.1C79.4,97.1,91.2,93.2,103.4,85.7z"/>
	
		<linearGradient id="SVGID_00000005255668554820084000000011062886257182539907_" gradientUnits="userSpaceOnUse" x1="-11.608" y1="497.4829" x2="-9.2614" y2="497.4829" gradientTransform="matrix(-22.6967 -22.6968 -21.8529 21.8529 10687.5596 -11018.3213)">
		<stop  offset="0" style="stop-color:#0052A2"/>
		<stop  offset="0.35" style="stop-color:#0069BC"/>
		<stop  offset="1" style="stop-color:#62BBEC"/>
	</linearGradient>
	<path style="fill:url(#SVGID_00000005255668554820084000000011062886257182539907_);" d="M88.4,107.7l17.8-17.8l-1.9-1.9l-0.4-0.4
		c-15.5,9.7-30.6,16.2-49.7,16.2c-19,0-37.2-6.5-51.7-16.7L-0.3,90l53.3,53.3L67.1,129L88.4,107.7z"/>
	
		<linearGradient id="SVGID_00000140714068823866483590000017858231310201348278_" gradientUnits="userSpaceOnUse" x1="-11.5806" y1="497.0468" x2="-9.2336" y2="497.0468" gradientTransform="matrix(-22.6977 -22.6977 -21.8538 21.8538 10694.9492 -11025.3193)">
		<stop  offset="0" style="stop-color:#0052A2"/>
		<stop  offset="0.35" style="stop-color:#0069BC"/>
		<stop  offset="1" style="stop-color:#62BBEC"/>
	</linearGradient>
	<path style="fill:url(#SVGID_00000140714068823866483590000017858231310201348278_);" d="M77.8,60.1l-7.3-7.3
		c-7,4.3-14.4,6.6-23.2,6.6c-5.2,0-10.1-1.5-14.8-3.1l-1.4,1.4c10.3,5.9,17.1,6.9,25.5,6.9C64.8,64.6,70.9,63.3,77.8,60.1z"/>
	<path class="st0" d="M229,91.6c-2.5-2.7-5.8-4.6-10-5.8c2.7-1.2,5-2.7,6.9-4.7c3.2-3.3,4.8-7.4,4.8-12.2c0-5.6-2.3-10.2-6.7-13.6
		c-4.6-3.6-10.9-5.4-18.7-5.4H172v77.8h35.2c8.9,0,15.8-2.2,20.4-6.5c4.3-3.9,6.6-9.1,6.6-15.6C234.1,99.8,232.4,95.1,229,91.6z
		 M212.5,77.5c-2.3,2.1-5.4,3.2-9.3,3.2H187V60h14c4.7,0,8.4,1.1,11.1,3.2c2.5,1.9,3.7,4.2,3.7,7.1
		C215.8,73.2,214.7,75.6,212.5,77.5z M187,90.8h13.8c6.6,0,10,0.9,13.5,3.7c3.6,2.8,4.8,5.2,4.8,9.4c0,4.2-1.3,6.9-4.6,9.7
		c-3.1,2.6-7.4,4-12.7,4H187V90.8z"/>
	<path class="st0" d="M144.1,105.3c0,4-1.2,6.9-3.8,8.9c-2,1.6-5.4,3.5-10.5,3.5H119v10.3H130c8.7,0,16.5-1.7,20.9-4.6
		c5.5-3.7,8.3-9.3,8.3-16.8V49.7h-15.1V105.3z"/>
	<polygon class="st0" points="314.4,67.8 297.8,67.8 297.8,74.4 314.4,74.4 314.4,103.1 326.1,103.1 326.1,49.7 314.4,49.7 	"/>
	<path class="st0" d="M281.4,76.6c7.1,5.9,13,12.9,16.8,17.8l0.5,0.6l7.5-8.1l-0.4-0.4c-4.1-4.7-13.5-12.1-20.5-16.8
		c1.7-3.9,2.8-8.1,3.1-12.4h14.3v-6.6h-42.4v6.6h15.8c-0.3,16.2-11.6,24.8-18.3,29.9c-0.7,0.5-1.3,1-1.9,1.5l-0.5,0.4l4,5.8l0.5-0.3
		C263.5,92.6,274.2,86.8,281.4,76.6z"/>
	<path class="st0" d="M281.1,120.7c-0.5-0.4-0.7-1.1-0.7-2.1v-19h-11.8v21.8c0,2.3,0.5,3.9,1.5,4.8c1.1,1.1,2.8,1.6,5.2,1.6h50.8
		v-6.6H284C282.7,121.3,281.7,121.1,281.1,120.7z"/>
	<path class="st0" d="M337.7,95.7h31.1v6.7h-22.6v6.6h41.6c1.7,0,2.5,0.3,2.8,0.6c0.5,0.4,0.7,1.1,0.7,2.1v16.1h11.8v-19
		c0-2.2-0.5-3.8-1.5-4.8c-1.1-1.1-2.8-1.7-5.1-1.7h-16v-6.7h31v-6.6h-73.8V95.7z"/>
	<path class="st0" d="M351.3,81.6c4.3,1.8,12.2,2.7,23.3,2.7c11.1,0,18.9-0.9,23.3-2.7c3.4-1.4,5.2-3.5,5.2-6.4V50.7h-12v11.5h-33
		V50.7h-12v24.4C346.2,78,347.9,80.2,351.3,81.6z M391.1,74.1c0,0.7-0.3,1.7-2.5,2.4c-2.5,0.8-7.3,1.2-14,1.2
		c-6.7,0-11.6-0.4-14.1-1.2c-2.2-0.7-2.4-1.7-2.4-2.4v-5.3h33V74.1z"/>
	<path class="st0" d="M441.1,120.7c-0.5-0.4-0.7-1.1-0.7-2.1v-16.2h-11.8v19c0,2.3,0.5,3.9,1.5,4.8c1.1,1.1,2.7,1.6,5.1,1.6h50.3
		v-6.6H444C442.7,121.3,441.6,121.1,441.1,120.7z"/>
	<path class="st0" d="M438.8,79c4.5,3.5,10.7,5.2,18.4,5.2c7.7,0,13.9-1.8,18.3-5.2c4.2-3.2,6.3-7.2,6.3-12.1
		c0-4.9-2.1-8.9-6.3-12.1c-4.4-3.4-10.6-5.1-18.4-5.1c-7.7,0-13.9,1.7-18.4,5.1c-4.1,3.2-6.2,7.2-6.2,12.1
		C432.5,71.7,434.6,75.8,438.8,79z M466.9,74.3c-2.4,2.2-5.5,3.3-9.7,3.3c-4.2,0-7.3-1.1-9.7-3.3c-2.1-2-3.2-4.4-3.2-7.5
		c0-3,1-5.4,3.2-7.3c2.4-2.1,5.6-3.2,9.7-3.2c4.1,0,7.3,1.1,9.7,3.2c2.1,1.9,3.2,4.3,3.2,7.3C470.1,69.9,469,72.3,466.9,74.3z"/>
	<rect x="420.3" y="89.1" class="st0" width="73.8" height="6.6"/>
	<polygon class="st0" points="538.4,56.8 524.3,56.8 524.3,49.7 512.6,49.7 512.6,56.8 498.5,56.8 498.5,63.4 538.4,63.4 	"/>
	<path class="st0" d="M535.8,80.7c0-4.3-1.5-7.8-4.5-10.5c-3.1-3-7.4-4.5-12.9-4.5c-5.5,0-9.9,1.5-13,4.5c-2.9,2.7-4.4,6.2-4.4,10.5
		c0,4.1,1.5,7.6,4.4,10.4c3.2,3,7.6,4.6,13,4.6c5.3,0,9.7-1.5,12.9-4.6C534.3,88.3,535.8,84.8,535.8,80.7z M523.2,86.6
		c-1.2,1.7-2.8,2.5-4.7,2.5c-2,0-3.6-0.8-4.8-2.4c-1.2-1.6-1.7-3.6-1.7-5.9c0-2.4,0.6-4.4,1.7-5.9c1.2-1.6,2.8-2.5,4.8-2.5
		c2,0,3.5,0.8,4.7,2.5c1.2,1.6,1.8,3.6,1.8,5.9C525,83,524.4,85,523.2,86.6z"/>
	<polygon class="st0" points="555.1,49.7 555.1,67.8 551.3,67.8 551.3,49.7 539.5,49.7 539.5,94.7 551.3,94.7 551.3,74.3 
		555.1,74.3 555.1,96.7 566.9,96.7 566.9,49.7 	"/>
	<path class="st0" d="M559.8,101.3c-4.3-3.1-10.2-4.7-17.6-4.7c-7.4,0-13.4,1.6-17.7,4.7c-4,2.9-6,6.5-6,10.9c0,4.4,2,8.1,6,11
		c4.3,3.2,10.1,4.7,17.7,4.7c7.4,0,13.4-1.6,17.6-4.7c4-2.9,6.1-6.6,6.1-11C565.9,107.8,563.9,104.1,559.8,101.3z M551,118.4
		c-2.1,1.9-5.1,2.9-8.8,2.9c-3.7,0-6.6-1-8.8-2.9c-1.9-1.7-2.9-3.7-2.9-6.3c0-2.4,1-4.5,2.9-6.2c2.1-1.8,5-2.7,8.8-2.7
		c3.7,0,6.7,0.9,8.8,2.7c1.9,1.6,2.9,3.7,2.9,6.2C553.9,114.7,552.9,116.7,551,118.4z"/>
</g>
</svg>
