<svg id="레이어_1" data-name="레이어 1" xmlns="http://www.w3.org/2000/svg" viewBox="0 0 259.69 133.36"><path d="M234.08,52.4l22.54,7.13a50.79,50.79,0,0,1-9.49,16.57,38.38,38.38,0,0,1-13.87,10q-7.95,3.39-19.62,3.39-14.13,0-22.6-4.1T177.33,71q-5.25-10.33-3.26-26.44,2.63-21.48,15.48-33T223.34,0q16.36,0,24.92,6.64T259.69,27L235.4,32.23a17.69,17.69,0,0,0-1.9-5.74,12.82,12.82,0,0,0-4.91-4.68,14.71,14.71,0,0,0-7.05-1.64,18.05,18.05,0,0,0-14.83,7.27q-4.31,5.4-5.73,17Q199.23,58.73,203,64c2.49,3.53,6.37,5.3,11.68,5.3q7.7,0,12.17-4.33T234.08,52.4Z" style="fill:#00a550"/><path d="M154,48.12s20.92-3.62,20.92-25.57c0,0,3.8-21.33-27.26-21.33H75.07S68.63,1.53,67.36,12L62.93,46.31s-.19,2.46-1.44-.18L40,7.79S36.31,1.22,26.71,1.22H11.28L.5,88.05H17.31s7.78.23,9.18-9.19L31.6,43s.25-2,1.31-.28l21.15,38A14.09,14.09,0,0,0,66.48,88h17L93.34,7.51A3.61,3.61,0,0,1,97,4.07c1.61,0,1.89.87,1.68,2.33l-9,72.78S87.82,88,96.63,88h18.7l3.8-31.59s0-3.49,2.85-3.49c0,0,6-1.26,8.56,4.44l12.77,30.74H174l-9.82-24.4s-3.3-10.78-12.58-13.94C151.55,49.71,149.86,49.39,154,48.12Zm-6.34-21.54c0,10.68-15.86,9.77-15.86,9.77H122L123.88,19h12.25C148.69,19,147.65,26.58,147.65,26.58Z" style="fill:#1f5a9e"/><path d="M8.54,106.86a16.18,16.18,0,0,0-3.63,6.72A29.07,29.07,0,0,0,4,120.12a28.25,28.25,0,0,0,.87,6.53,16.2,16.2,0,0,0,3.63,6.71H5.71a17.93,17.93,0,0,1-3.9-5.29,18.38,18.38,0,0,1,0-15.93,17.88,17.88,0,0,1,3.93-5.28Z" style="fill:#221e1f"/><path d="M20.67,124.39H10.3v-3.14H35.36v3.14H25v9H20.67Zm-.14-13.65H13.15v-3.17H32.51v3.17H25.14a5.49,5.49,0,0,0,.78,2.66,6.65,6.65,0,0,0,1.72,1.86A9.26,9.26,0,0,0,31,116.83a15.32,15.32,0,0,0,3,.48c.11,0,.16,0,.15.07a.82.82,0,0,1-.06.16L31.6,120a13.5,13.5,0,0,1-5.44-1.55,10,10,0,0,1-1.79-1.3A6.53,6.53,0,0,1,23,115.53s-.08-.07-.19-.07-.18,0-.21.07a6.51,6.51,0,0,1-1.51,1.78,11.54,11.54,0,0,1-2.05,1.35,13.5,13.5,0,0,1-2.53.94,12.84,12.84,0,0,1-2.48.39l-2.47-2.45a.35.35,0,0,1-.07-.16s0-.07.15-.07a14.19,14.19,0,0,0,2.93-.46,9.39,9.39,0,0,0,3.22-1.42,7.17,7.17,0,0,0,1.84-1.92A5.81,5.81,0,0,0,20.53,110.74Z" style="fill:#221e1f"/><path d="M45.6,120.12a16.89,16.89,0,0,1-1.81,7.95,18,18,0,0,1-3.91,5.29H37.1a16.17,16.17,0,0,0,3.62-6.71,27.24,27.24,0,0,0,.88-6.53,29.07,29.07,0,0,0-.91-6.54,16.06,16.06,0,0,0-3.63-6.72h2.79a18.41,18.41,0,0,1,3.93,5.28A16.78,16.78,0,0,1,45.6,120.12Z" style="fill:#221e1f"/><path d="M57,112.17a4.45,4.45,0,0,1,.69,2.53,4.51,4.51,0,0,1-.69,2.54,2.18,2.18,0,0,1-1.87,1,2.2,2.2,0,0,1-1.85-1,4.44,4.44,0,0,1-.71-2.54,4.38,4.38,0,0,1,.71-2.53,2.17,2.17,0,0,1,1.85-1A2.14,2.14,0,0,1,57,112.17Zm-6.65-2.24a6.66,6.66,0,0,0,0,9.52,6.81,6.81,0,0,0,9.56,0,6.66,6.66,0,0,0,0-9.52,6.78,6.78,0,0,0-9.56,0Zm18,6.86v9.08h3.75v-19H66.92v1.44h.32a1,1,0,0,1,.89.35,1.37,1.37,0,0,1,.25.84v4.15h-1.6v-6.78h-5.2v1.44h.31a1,1,0,0,1,.9.35,1.43,1.43,0,0,1,.23.84v16.38h3.76v-9.08Zm-14.85,7.07v1.43h.56a1.06,1.06,0,0,1,.86.36,1.29,1.29,0,0,1,.28.82v4.26a2.41,2.41,0,0,0,.57,1.78,2.37,2.37,0,0,0,1.74.56H72.42v-3.16H60a.37.37,0,0,1-.31-.13.37.37,0,0,1-.11-.31v-5.61Z" style="fill:#221e1f"/><path d="M80.92,111.62a2.16,2.16,0,0,1,3.62,0,3.58,3.58,0,0,1,0,4.49,2.16,2.16,0,0,1-3.62,0,3.66,3.66,0,0,1,0-4.49Zm-3.13,6.79a7.46,7.46,0,0,0,9.9,0,6.06,6.06,0,0,0,0-9.09,7.46,7.46,0,0,0-9.9,0,6.1,6.1,0,0,0,0,9.09Zm19.69-11.55h-6v1.74h.58a1,1,0,0,1,.85.4,1.48,1.48,0,0,1,.28.84V121h4.27v-5.6h3.7v-3.31h-3.7ZM80.15,131a2.74,2.74,0,0,0,.5,1.86,2.43,2.43,0,0,0,1.77.53H97.76v-3h-13a.25.25,0,0,1-.21-.07.18.18,0,0,1-.07-.16v-.9H96.91a.54.54,0,0,0,.44-.16.59.59,0,0,0,.13-.39v-6.27a.37.37,0,0,0-.07-.23.26.26,0,0,0-.22-.08H79v2.93H93.16v1.24H78.73v1.43H79a1,1,0,0,1,.86.36,1.25,1.25,0,0,1,.29.83Z" style="fill:#221e1f"/><path d="M121.24,115.37v-5.53A1.42,1.42,0,0,0,121,109a1,1,0,0,0-.86-.4h-.56v-1.74h6v26.5h-4.26V118.7H117v-3.33Zm-10.2,2.7h-6.17v-3.14h7.48c.11-.5.2-1,.27-1.52a11.26,11.26,0,0,0,.1-1.56v-.23h-8.14v-3.18h12.21a.28.28,0,0,1,.23.11.37.37,0,0,1,.09.25v2.3a15,15,0,0,1-.86,5.19,16.44,16.44,0,0,1-2.18,4.12,15.26,15.26,0,0,1-4.32,3.94,13.35,13.35,0,0,1-4.54,1.78l-2.28-2.1a.18.18,0,0,1-.06-.17c0-.07.06-.09.15-.12a12.51,12.51,0,0,0,4.55-1.95A11.75,11.75,0,0,0,111,118.07Z" style="fill:#221e1f"/><path d="M146.44,115.75a.46.46,0,0,1-.35.1h-9.34a.88.88,0,0,1-.35-.06c-.06,0-.1-.16-.1-.37v-3.75a.65.65,0,0,1,.07-.36c0-.07.17-.1.36-.1h9.36a.61.61,0,0,1,.37.08.59.59,0,0,1,.09.35v3.75A.5.5,0,0,1,146.44,115.75Zm-14.36.76a2.43,2.43,0,0,0,.68,1.81,2.28,2.28,0,0,0,1.71.67h13.9a2.28,2.28,0,0,0,1.72-.67,2.42,2.42,0,0,0,.67-1.81v-8.18a.27.27,0,0,0-.08-.21c0-.05-.12-.07-.23-.07H130.38v1.43h.56a1,1,0,0,1,.86.35,1.25,1.25,0,0,1,.28.84Zm21.78,7.6V121h-25v3.14h6.26v9.24h4v-9.24h4.27v9.24h4v-9.24Z" style="fill:#221e1f"/><path d="M178.8,133.36h-4.27v-8.61a6.48,6.48,0,0,1-1.79.39c-.69.07-1.56.1-2.62.1h-9.06a3.46,3.46,0,0,1-2.55-.86,3.77,3.77,0,0,1-.86-2.71V111.36a1.16,1.16,0,0,0-.32-.83,1.07,1.07,0,0,0-.82-.35H156v-1.44h6V121.5a.5.5,0,0,0,.53.57h8.77a11.56,11.56,0,0,0,1.9-.13,7.45,7.45,0,0,0,1.37-.33V109.84a1.48,1.48,0,0,0-.28-.84,1,1,0,0,0-.86-.4h-.56v-1.74h6Z" style="fill:#221e1f"/><path d="M189.54,118.07h-4.69v-3.14h5.77a16.05,16.05,0,0,0,.32-3.08v-.14H184.7v-3.17h10.14a.22.22,0,0,1,.21.09.28.28,0,0,1,.07.21v2.69a14.61,14.61,0,0,1-.09,1.76c-.05.58-.13,1.13-.21,1.64h2.33v-5.44a1.44,1.44,0,0,0-.25-.84,1,1,0,0,0-.9-.35h-.3v-1.44h10.24v26.5h-3.82V109.49a1.38,1.38,0,0,0-.26-.84,1.12,1.12,0,0,0-.93-.35l0,25.06h-3.81V118.1h-3.36a13.51,13.51,0,0,1-3.11,4.43A13.71,13.71,0,0,1,187.4,125a14.13,14.13,0,0,1-2.75,1.17l-2.28-2.1c-.06-.06-.08-.1-.06-.15a.32.32,0,0,1,.15-.09,12.78,12.78,0,0,0,2.13-.9,12.59,12.59,0,0,0,2.13-1.36,11.33,11.33,0,0,0,1.56-1.54A10.52,10.52,0,0,0,189.54,118.07Z" style="fill:#221e1f"/><path d="M215.29,113.24a2.88,2.88,0,0,1,2.39-1.39,2.81,2.81,0,0,1,2.44,1.41,5.68,5.68,0,0,1,.92,3.14,5.43,5.43,0,0,1-.94,3.11,2.82,2.82,0,0,1-4.87,0,5.6,5.6,0,0,1-.93-3.15A5.18,5.18,0,0,1,215.29,113.24Zm17.05-6.38h-6v1.74h.56a1,1,0,0,1,.86.4,1.5,1.5,0,0,1,.29.84v23.52h4.26ZM212.13,111a7.44,7.44,0,0,0,0,10.74,7.81,7.81,0,0,0,10.95,0,7.43,7.43,0,0,0,0-10.74,7.64,7.64,0,0,0-5.49-2.23A7.57,7.57,0,0,0,212.13,111Z" style="fill:#221e1f"/><path d="M246.41,115.28a8.06,8.06,0,0,0,1,2.19,6,6,0,0,0,2.49,2.09,9.72,9.72,0,0,0,2.46.81c.11,0,.15,0,.15.11a.18.18,0,0,1-.06.13l-2.05,2.13a5.18,5.18,0,0,1-1.7-.32,8.26,8.26,0,0,1-1.77-.86,10,10,0,0,1-1.81-1.49,4.59,4.59,0,0,1-1.12-1.78.27.27,0,0,0-.22-.18.2.2,0,0,0-.21.18,4.68,4.68,0,0,1-1.07,1.75,8,8,0,0,1-1.78,1.48,8.89,8.89,0,0,1-1.81.88,5,5,0,0,1-1.75.34l-2-2.13a.14.14,0,0,1,0-.13c0-.07,0-.09.12-.11a10.12,10.12,0,0,0,2.34-.73,6.31,6.31,0,0,0,2.34-1.79,8,8,0,0,0,1.22-2.27,9.7,9.7,0,0,0,.48-3.24v-1.85a1.21,1.21,0,0,0-.3-.81,1,1,0,0,0-.89-.37h-.51V107.9H246v4.44A9.5,9.5,0,0,0,246.41,115.28Zm-6,8.58v1.43H241a1,1,0,0,1,.85.36,1.19,1.19,0,0,1,.29.82v4.26a2.41,2.41,0,0,0,.57,1.78,2.36,2.36,0,0,0,1.73.56h14.76v-3.16H246.89a.41.41,0,0,1-.32-.13.4.4,0,0,1-.11-.31v-5.61Zm9.08-12.9v2.87h5.13v1.54h-5.13v2.87h5.13v7.63h4.27v-19h-6v1.74h.56a1,1,0,0,1,.87.4,1.41,1.41,0,0,1,.28.84V111Z" style="fill:#221e1f"/></svg>