<svg xmlns="http://www.w3.org/2000/svg" width="137.265" height="96.723" viewBox="0 0 137.265 96.723">
  <g id="그룹_71" data-name="그룹 71" transform="translate(-331.854 -112.116)">
    <path id="패스_261" data-name="패스 261" d="M331.854,180.575v28.264H469.111V180.575Zm22.138,21.62h-3.561V187.776h3.561Zm25.392-3.505a3.908,3.908,0,0,1-3.907,3.908h-.629a3.907,3.907,0,0,1-3.908-3.908v-7.12a3.909,3.909,0,0,1,3.908-3.909h.629a3.909,3.909,0,0,1,3.907,3.909Zm24.762-.267a4.161,4.161,0,0,1-4.464,4.232s-3.1.173-4-2.528l-.067-.443-.03-3.042h3.255v2.376a1.049,1.049,0,0,0,1.531.9s1.19-.708-.074-2.2l-4.1-3.965a3.774,3.774,0,0,1-.056-4.69,4.3,4.3,0,0,1,3.655-1.378s3.278-.173,4.119,2.238c0,0,.052.305.07.419l.027,2.724h-3.257v-2.3s-.132-1.129-1.474-.632c0,0-1.11.645-.1,1.933l4.137,3.791A3.412,3.412,0,0,1,404.146,198.423Zm47.108,0a4.159,4.159,0,0,1-4.464,4.232s-3.1.173-4-2.528l-.067-.443-.03-3.042h3.255v2.376a1.049,1.049,0,0,0,1.531.9s1.191-.708-.074-2.2l-4.1-3.965a3.776,3.776,0,0,1-.056-4.69,4.306,4.306,0,0,1,3.657-1.378s3.276-.173,4.119,2.238c0,0,.05.305.067.419l.028,2.724h-3.257v-2.3s-.136-1.129-1.473-.632c0,0-1.111.645-.1,1.933l4.138,3.791A3.41,3.41,0,0,1,451.254,198.423Z"/>
    <rect id="사각형_516" data-name="사각형 516" width="68.633" height="68.633" transform="translate(400.486 112.116)" fill="#24408c"/>
    <path id="패스_262" data-name="패스 262" d="M391.871,147.084a26.5,26.5,0,1,1-26.5-26.5A26.5,26.5,0,0,1,391.871,147.084Z" fill="#24408c"/>
    <path id="패스_263" data-name="패스 263" d="M423.045,121.608v10.685h8.045v39.179h12.178V121.492Z" fill="#fff"/>
    <path id="패스_264" data-name="패스 264" d="M379.92,147.39a14.4,14.4,0,1,1-14.4-14.4A14.4,14.4,0,0,1,379.92,147.39Z" fill="#fff"/>
    <path id="패스_265" data-name="패스 265" d="M376.111,199.237a.949.949,0,0,1-.949.949h0a.948.948,0,0,1-.948-.949v-8.33a.948.948,0,0,1,.948-.948h0a.95.95,0,0,1,.949.948Z"/>
    <path id="합치기_3" data-name="합치기 3" d="M425.536,196.6v5.553h-3.907V196.6l-2.643-8.579h3.372l1.262,5.208,1.19-5.209h3.368Z" fill="#fff"/>
  </g>
</svg>
